<svg width="503" height="480" viewBox="0 0 503 480" fill="none" xmlns="http://www.w3.org/2000/svg">
<path fill-rule="evenodd" clip-rule="evenodd" d="M90.3238 11.9786C89.8437 11.9786 89.3447 12.0538 88.8269 12.2229C87.8761 12.5423 86.9253 13.1717 86.0215 14.0172C85.2307 14.9097 84.5906 15.868 84.1199 16.9671C83.6398 18.0757 83.4326 19.1842 83.4326 20.2928C83.4326 21.4013 83.6962 22.3502 84.1669 23.1487C84.7036 23.9848 85.3908 24.5673 86.1816 24.8867C86.6429 25.1027 87.1418 25.2061 87.6784 25.2061C88.055 25.2061 88.4598 25.1497 88.874 25.0464C89.8249 24.7833 90.7286 24.2478 91.6229 23.3554C92.5267 22.5662 93.214 21.561 93.6847 20.4055C94.1648 19.2969 94.4284 18.132 94.4284 16.9201C94.4284 15.7083 94.2684 14.703 93.6847 13.8575C93.214 12.9651 92.5267 12.439 91.6229 12.1665C91.1993 12.0444 90.7663 11.9786 90.3238 11.9786Z" fill="#7D26C9"/>
<path fill-rule="evenodd" clip-rule="evenodd" d="M124.779 -55.136C123.762 -55.136 122.708 -54.7884 121.606 -54.0932C119.912 -53.088 118.321 -51.4064 116.636 -49.1893C114.941 -46.9158 113.623 -44.492 112.616 -42.0119C111.609 -39.5317 110.978 -36.9483 110.714 -34.3648C110.244 -34.4963 109.782 -34.5715 109.302 -34.5715C108.314 -34.5715 107.306 -34.2614 106.271 -33.6226C104.736 -32.7771 103.098 -31.0955 101.357 -28.822C98.2876 -24.6509 96.5459 -20.1697 96.1223 -15.4255C95.3786 -16.4777 95.0585 -17.0038 94.3242 -18.1687C91.1517 -13.9412 89.6172 -11.8368 86.4446 -7.61866C90.6245 -0.121864 94.8514 7.21523 99.2949 14.496C102.467 10.2684 104.049 8.16408 107.278 3.78625C104.576 -0.967369 103.202 -3.44751 100.453 -8.51114C99.9821 -9.40362 99.7185 -10.4088 99.6056 -11.5737C99.6056 -12.7293 99.7656 -13.8378 100.142 -15.0497C100.556 -16.271 101.197 -17.3232 101.884 -18.3284C102.515 -19.0612 103.098 -19.6436 103.729 -19.9066C104.04 -20.0476 104.36 -20.1133 104.67 -20.1133C104.953 -20.1133 105.226 -20.057 105.48 -19.963C106.007 -19.7469 106.478 -19.2772 106.798 -18.6384C109.707 -12.9923 111.185 -10.3055 114.094 -5.02579C117.323 -9.2533 118.905 -11.3577 122.077 -15.5852C119.432 -20.6488 118.17 -23.2323 115.572 -28.559C115.101 -29.4608 114.838 -30.513 114.838 -31.6685C114.734 -32.8898 114.941 -34.1017 115.365 -35.3136C115.732 -36.5255 116.372 -37.5777 117.003 -38.5265C117.897 -39.7478 118.857 -40.3209 119.695 -40.4806C119.742 -40.49 119.78 -40.49 119.818 -40.49C120.665 -40.49 121.362 -39.9545 121.87 -38.799C124.619 -32.8898 125.993 -30.0339 128.742 -24.4442C131.858 -28.6623 133.497 -30.8324 136.669 -35.0506C133.76 -41.3261 132.282 -44.5484 129.373 -51.303C128.582 -53.3041 127.528 -54.5723 126.097 -54.9387C125.664 -55.0702 125.221 -55.136 124.779 -55.136Z" fill="#7D26C9"/>
<path fill-rule="evenodd" clip-rule="evenodd" d="M111.797 45.9868C111.214 45.9868 110.593 46.0902 109.915 46.2499C108.917 46.5693 107.909 47.0954 106.959 47.8375C106.008 48.5703 105.264 49.4722 104.737 50.4774C104.21 51.4262 103.946 52.422 103.843 53.3239C103.786 54.2728 103.993 55.0619 104.473 55.8041C104.953 56.5368 105.528 57.1193 106.431 57.3823C106.893 57.5326 107.392 57.6078 107.909 57.6078C108.333 57.6078 108.776 57.5608 109.227 57.4387C110.291 57.1757 111.242 56.6965 112.136 55.9074C113.04 55.1652 113.774 54.2728 114.415 53.2675C114.998 52.2717 115.365 51.2665 115.422 50.2143C115.469 49.1058 115.262 48.2603 114.838 47.5181C114.358 46.8323 113.671 46.3062 112.777 46.0902C112.466 46.015 112.136 45.9868 111.797 45.9868Z" fill="#7D26C9"/>
<path fill-rule="evenodd" clip-rule="evenodd" d="M144.097 -13.9597C143.118 -13.9597 142.064 -13.5745 140.953 -12.8887C139.418 -11.8835 137.884 -10.4086 136.302 -8.40758C134.768 -6.35018 133.497 -4.18006 132.603 -1.97235C131.755 0.301109 131.228 2.51821 131.012 4.78228C130.635 4.69773 130.268 4.65076 129.901 4.65076C128.903 4.65076 127.914 4.96078 126.841 5.57142C125.41 6.47329 123.876 7.94823 122.294 10.0056C119.385 13.754 117.747 17.8124 117.427 21.9272C116.683 21.0347 116.373 20.5556 115.685 19.6068C112.72 23.4116 111.242 25.3092 108.276 29.161C112.249 35.4365 116.26 41.712 120.336 48.0439C123.405 44.2485 124.93 42.3508 127.895 38.3958C125.354 34.2246 124.092 32.1672 121.447 27.7894C120.92 27.0003 120.703 26.0984 120.647 25.0932C120.599 24.0974 120.807 23.0921 121.127 22.04C121.55 20.9314 122.078 19.9262 122.765 19.0807C123.292 18.3949 123.819 17.9252 124.403 17.6621C124.77 17.5024 125.109 17.4179 125.429 17.4179C125.655 17.4179 125.871 17.4648 126.097 17.5494C126.625 17.7091 127.048 18.0755 127.368 18.6579C130.221 23.5149 131.539 25.8353 134.288 30.4762C137.413 26.6245 138.891 24.7831 141.904 21.0347C139.418 16.6005 138.147 14.3835 135.559 9.74258C135.088 8.95344 134.928 8.05157 134.824 6.99938C134.768 5.99417 134.975 4.94199 135.295 3.83344C135.719 2.78126 136.199 1.83241 136.829 0.986908C137.724 -0.121643 138.524 -0.704094 139.418 -0.863808C139.494 -0.873199 139.569 -0.873199 139.644 -0.873199C140.397 -0.873199 141.056 -0.394081 141.537 0.564156C144.229 5.68415 145.603 8.1643 148.305 13.1246C151.318 9.27285 152.796 7.42213 155.752 3.62676C152.852 -1.97235 151.421 -4.81889 148.456 -10.6247C147.618 -12.3627 146.507 -13.4712 145.18 -13.7906C144.832 -13.9034 144.464 -13.9597 144.097 -13.9597Z" fill="#7D26C9"/>
<path fill-rule="evenodd" clip-rule="evenodd" d="M130.748 76.087C130.202 76.087 129.618 76.1716 129.006 76.3219C127.896 76.5849 126.888 77.0641 125.881 77.8062C124.883 78.492 124.092 79.2812 123.509 80.23C122.868 81.1225 122.445 82.0244 122.341 82.9168C122.181 83.8657 122.341 84.6078 122.765 85.2467C123.132 85.9325 123.772 86.4022 124.563 86.6652C124.987 86.778 125.448 86.8437 125.937 86.8437C126.38 86.8437 126.841 86.7874 127.312 86.6652C128.319 86.4586 129.317 85.9794 130.381 85.397C131.435 84.6642 132.226 83.8657 132.866 82.9168C133.497 81.968 133.921 81.0191 134.081 80.0233C134.288 79.0181 134.184 78.229 133.761 77.5432C133.337 76.8574 132.763 76.4346 131.859 76.2186C131.511 76.134 131.134 76.087 130.748 76.087Z" fill="#7D26C9"/>
<path fill-rule="evenodd" clip-rule="evenodd" d="M163.02 22.7542C162.097 22.7542 161.109 23.0454 160.035 23.6184C158.557 24.4076 157.079 25.7792 155.601 27.5735C154.114 29.4242 152.9 31.2656 152.052 33.276C151.158 35.277 150.631 37.3344 150.414 39.3448C150.038 39.2603 149.661 39.2227 149.285 39.2227C148.381 39.2227 147.458 39.4576 146.451 39.9742C145.02 40.7164 143.598 42.0316 142.007 43.8824C139.211 47.1516 137.573 50.7873 137.197 54.4793C136.566 53.6902 136.246 53.2674 135.662 52.4219C132.763 55.804 131.332 57.495 128.479 60.8676C132.019 66.5606 135.455 72.2631 138.788 78.0125C141.904 74.6869 143.438 73.0522 146.451 69.8393C144.333 65.9312 143.175 63.9772 140.896 60.0221C140.473 59.2799 140.266 58.4908 140.266 57.6453C140.266 56.7528 140.426 55.804 140.793 54.9021C141.217 53.9532 141.744 53.0608 142.431 52.2716C142.958 51.6892 143.495 51.2101 144.022 51.0034C144.38 50.8437 144.709 50.7779 145.029 50.7779C145.227 50.7779 145.425 50.8061 145.604 50.8437C146.131 51.0034 146.507 51.3134 146.818 51.8489C149.303 56.2737 150.471 58.4438 152.852 62.8216C155.865 59.4396 157.343 57.758 160.299 54.4793C158.134 50.3176 157.023 48.2602 154.754 44.0327C154.33 43.2999 154.114 42.398 154.114 41.4492C154.114 40.5567 154.33 39.4951 154.651 38.6027C155.018 37.6538 155.545 36.7519 156.129 36.0192C156.919 35.014 157.767 34.4879 158.557 34.4315C158.595 34.4315 158.642 34.4315 158.68 34.4315C159.414 34.4315 160.017 34.9012 160.516 35.7561C163.001 40.4534 164.215 42.8208 166.541 47.4147C169.45 44.089 170.928 42.398 173.837 39.1287C171.248 33.8021 169.93 31.2186 167.181 25.8355C166.334 24.2479 165.27 23.2521 164.055 22.8763C163.716 22.7917 163.378 22.7542 163.02 22.7542Z" fill="#7D26C9"/>
<path fill-rule="evenodd" clip-rule="evenodd" d="M183.449 4.8951C183.929 4.8951 184.381 5.01723 184.833 5.26149C185.623 5.68424 186.264 6.31367 186.734 7.31889C187.214 8.42744 187.478 9.53598 187.478 10.9076C187.535 12.2228 187.271 13.5944 186.847 14.8627C186.471 16.1779 185.84 17.2395 184.889 18.1319C184.145 19.0808 183.298 19.6632 182.404 19.9263C182.018 20.0484 181.632 20.1142 181.246 20.1142C180.794 20.1142 180.351 20.0202 179.918 19.823C179.128 19.4472 178.544 18.8177 178.064 17.8125C177.593 16.8167 177.33 15.6518 177.33 14.3835C177.33 13.1247 177.49 11.8564 177.913 10.4848C178.327 9.1602 178.911 8.00468 179.702 7.05584C180.549 6.05063 181.396 5.46817 182.3 5.10178C182.705 4.96087 183.082 4.8951 183.449 4.8951ZM187.742 -6.11523C186.386 -6.11523 184.974 -5.71127 183.515 -4.86577C181.349 -3.6069 179.175 -1.65285 177.066 1.03397C174.891 3.62685 173.206 6.52975 171.879 9.63932C170.504 12.7019 169.77 15.8115 169.553 18.7144C169.393 21.777 169.874 24.3605 170.984 26.6246C172.095 28.8417 173.517 30.2132 175.428 30.5796C175.908 30.6924 176.407 30.7487 176.906 30.7487C178.365 30.7487 179.881 30.2978 181.453 29.4711C183.618 28.3156 185.783 26.5212 187.845 24.0974C189.963 21.6643 191.601 19.0338 192.919 16.0745C194.19 13.1247 194.981 10.0621 195.198 7.05584C195.405 4.04961 194.981 1.30641 193.927 -1.17373C192.816 -3.71024 191.441 -5.34489 189.54 -5.87098C188.947 -6.04008 188.354 -6.11523 187.742 -6.11523Z" fill="#7D26C9"/>
<path fill-rule="evenodd" clip-rule="evenodd" d="M210.223 -37.277C209.507 -37.277 208.745 -37.0609 207.935 -36.6288C206.617 -35.896 205.186 -34.6277 203.765 -32.8334C201.016 -29.3011 199.481 -25.2332 199.161 -20.8084C198.474 -22.0203 198.21 -22.5934 197.523 -23.7583C194.934 -20.4327 193.56 -18.7417 190.971 -15.4254C194.247 -7.82526 197.627 -0.178146 200.856 7.47836C203.604 4.09635 204.922 2.51807 207.671 -0.751205C205.61 -5.71149 204.612 -8.24801 202.494 -13.2553C202.126 -14.2605 201.91 -15.3127 201.91 -16.4776C201.91 -17.5861 202.126 -18.7417 202.494 -19.8032C202.917 -20.9118 203.444 -21.9076 204.132 -22.7531C204.941 -23.8616 205.751 -24.3971 206.513 -24.3971C206.542 -24.3971 206.579 -24.3971 206.617 -24.3877C207.408 -24.3408 208.048 -23.7019 208.472 -22.4901C210.797 -16.797 211.851 -13.9974 214.073 -8.40771C216.765 -11.7803 218.093 -13.4713 220.785 -16.7406C218.3 -23.3356 217.029 -26.5579 214.544 -33.1528C213.809 -35.0975 212.859 -36.3657 211.691 -36.9482C211.23 -37.1642 210.74 -37.277 210.223 -37.277Z" fill="#7D26C9"/>
<path fill-rule="evenodd" clip-rule="evenodd" d="M145.961 104.562C145.49 104.562 144.973 104.628 144.445 104.759C143.438 105.022 142.384 105.501 141.376 106.187C140.266 106.873 139.475 107.662 138.731 108.508C137.997 109.456 137.573 110.358 137.31 111.204C137.036 112.096 137.149 112.838 137.413 113.468C137.677 114.154 138.204 114.633 138.948 114.896C139.334 115.027 139.757 115.093 140.209 115.093C140.623 115.093 141.056 115.046 141.536 114.943C142.591 114.783 143.598 114.37 144.653 113.571C145.66 112.885 146.554 112.153 147.241 111.204C147.929 110.358 148.456 109.409 148.729 108.461C149.096 107.502 149.04 106.713 148.729 106.027C148.456 105.398 147.929 104.919 147.138 104.712C146.79 104.609 146.394 104.562 145.961 104.562Z" fill="#7D26C9"/>
<path fill-rule="evenodd" clip-rule="evenodd" d="M179.532 57.2134C178.789 57.2134 177.979 57.4201 177.113 57.8052C175.691 58.491 174.26 59.6559 172.829 61.1872C171.351 62.8219 170.137 64.4565 169.186 66.2978C168.235 68.0922 167.652 69.8865 167.285 71.7842C166.814 71.6245 166.353 71.5494 165.891 71.5494C165.138 71.5494 164.376 71.7467 163.528 72.1036C162.257 72.6297 160.779 73.7947 159.245 75.3729C156.496 78.2758 154.754 81.4418 154.067 84.8708C153.587 83.9783 153.323 83.6025 152.796 82.7664C149.887 85.6599 148.456 87.1442 145.5 90.0941C149.04 96.7924 150.574 100.174 153.38 106.929C156.552 104.129 158.087 102.701 161.203 99.9583C159.565 96.0032 158.774 94.1055 156.976 90.1974C156.6 89.568 156.496 88.7225 156.552 87.9334C156.6 87.0879 156.863 86.2423 157.287 85.3968C157.71 84.5044 158.294 83.7152 158.981 83.0294C159.509 82.4939 160.036 82.1839 160.572 81.9679C160.836 81.8645 161.081 81.8081 161.325 81.8081C161.57 81.8081 161.806 81.8645 162.05 81.9679C162.474 82.1839 162.785 82.4939 163.048 83.0294C165.063 87.4073 166.014 89.568 167.755 93.8989C170.881 91.0993 172.406 89.6244 175.428 86.8248C173.733 82.6537 172.886 80.5493 170.984 76.4345C170.664 75.6923 170.504 74.8468 170.617 74.0013C170.664 73.1089 170.881 72.2633 171.248 71.3709C171.672 70.5254 172.199 69.7832 172.829 69.0974C173.63 68.3083 174.421 67.8292 175.164 67.8292C175.899 67.8292 176.482 68.3083 176.906 69.2571C178.911 73.8416 179.918 76.1151 181.773 80.8123C184.729 78.0128 186.16 76.5378 189.116 73.7383C187.054 68.4116 186 65.7248 183.675 60.5014C183.034 58.9138 182.084 57.9649 180.926 57.4952C180.483 57.3073 180.022 57.2134 179.532 57.2134Z" fill="#7D26C9"/>
<path fill-rule="evenodd" clip-rule="evenodd" d="M199.717 42.2759C200.282 42.2759 200.828 42.4544 201.327 42.7738C202.014 43.1402 202.598 43.8824 202.965 44.8782C203.388 45.8834 203.605 47.0483 203.501 48.3072C203.501 49.5754 203.238 50.7873 202.758 51.9992C202.334 53.1641 201.703 54.1693 200.903 54.9585C200.169 55.7476 199.378 56.2267 198.474 56.4334C198.229 56.4992 197.994 56.5273 197.759 56.5273C197.194 56.5273 196.676 56.3488 196.149 56.0106C195.405 55.5409 194.831 54.9021 194.454 53.9063C194.031 52.9574 193.927 51.7925 193.927 50.5806C193.984 49.3687 194.191 48.1569 194.671 46.9919C195.142 45.827 195.725 44.7748 196.469 43.9293C197.203 43.1402 198.004 42.6141 198.898 42.398C199.171 42.3135 199.453 42.2759 199.717 42.2759ZM203.85 32.0735C202.748 32.0735 201.581 32.3741 200.376 32.9566C198.211 33.9618 196.149 35.5964 194.031 37.9169C191.969 40.1903 190.227 42.8208 188.853 45.564C187.478 48.3072 186.631 51.1067 186.311 53.9063C186 56.6964 186.311 59.1766 187.271 61.4501C188.222 63.6672 189.54 65.0857 191.235 65.6682C191.931 65.9312 192.656 66.0534 193.428 66.0534C194.53 66.0534 195.697 65.7997 196.94 65.3018C199.001 64.3999 201.12 62.925 203.238 60.7643C205.347 58.7069 207.098 56.3864 208.416 53.6902C209.79 51.0034 210.637 48.2602 211.004 45.3573C211.325 42.4544 211.061 39.8145 210.11 37.3908C209.159 34.9106 207.785 33.276 206.09 32.5338C205.384 32.2238 204.631 32.0735 203.85 32.0735Z" fill="#7D26C9"/>
<path fill-rule="evenodd" clip-rule="evenodd" d="M225.831 4.93274C225.267 4.93274 224.683 5.06426 224.062 5.30852C222.744 5.84401 221.416 6.94316 220.042 8.53083C217.453 11.6404 215.871 15.2291 215.495 19.4003C214.864 18.1884 214.6 17.6059 214.017 16.441C211.428 19.4003 210.157 20.8188 207.625 23.7781C210.637 31.2655 213.546 38.8656 216.295 46.5127C219.044 43.6662 220.362 42.1913 223.064 39.4481C221.313 34.4314 220.465 31.9043 218.564 26.944C218.197 25.8918 218.037 24.8303 218.037 23.7781C218.037 22.6695 218.253 21.6643 218.62 20.6685C219.044 19.6633 219.571 18.8178 220.258 18.0756C220.993 17.2113 221.717 16.7792 222.376 16.7792C222.489 16.7792 222.593 16.7886 222.687 16.8168C223.431 16.9201 224.015 17.5495 224.438 18.7145C226.443 24.3605 227.451 27.1037 229.399 32.7968C232.101 30.0066 233.419 28.5223 236.065 25.7321C233.899 19.1372 232.732 15.8679 230.407 9.27299C229.719 7.42228 228.769 6.05068 227.714 5.46822C227.093 5.10184 226.472 4.93274 225.831 4.93274Z" fill="#7D26C9"/>
<path fill-rule="evenodd" clip-rule="evenodd" d="M249.97 -26.2384C246.854 -22.49 245.319 -20.6487 242.25 -16.7969C241.666 -13.5746 241.403 -11.9964 240.829 -8.83041C240.348 -5.82417 240.085 -4.33984 239.605 -1.38998C238.87 -3.60707 238.55 -4.65926 237.807 -6.87636C236.065 -12.0433 235.114 -14.6832 233.316 -19.8032C230.671 -16.5809 229.353 -15.0026 226.707 -11.7803C230.887 -0.337791 234.907 11.1705 238.814 22.7727C241.403 19.9261 242.777 18.4512 245.319 15.6516C244.312 12.3823 243.785 10.7477 242.674 7.52539C243.041 6.05046 243.257 5.3083 243.577 3.78638C244.575 4.35945 245.055 4.73523 246.006 5.3083C248.124 6.67989 249.226 7.42206 251.344 8.89699C254.46 5.42103 255.995 3.73002 259.12 0.244667C253.989 -2.80854 251.344 -4.18014 246.11 -6.77302C247.484 -13.2552 248.755 -19.7468 249.97 -26.2384Z" fill="#7D26C9"/>
<path fill-rule="evenodd" clip-rule="evenodd" d="M155.762 133.976C155.432 133.976 155.103 134.014 154.754 134.098C153.691 134.305 152.693 134.681 151.685 135.31C150.678 135.94 149.831 136.682 149.04 137.584C148.306 138.42 147.666 139.369 147.355 140.271C146.978 141.219 146.931 141.905 147.082 142.647C147.242 143.333 147.666 143.859 148.306 144.226C148.71 144.451 149.219 144.536 149.812 144.536C150.066 144.536 150.339 144.526 150.631 144.489C151.582 144.329 152.533 143.963 153.427 143.333C154.434 142.647 155.385 141.905 156.232 141.06C157.023 140.167 157.607 139.265 158.03 138.316C158.398 137.368 158.501 136.578 158.351 135.836C158.238 135.104 157.814 134.624 157.127 134.305C156.741 134.08 156.27 133.976 155.762 133.976Z" fill="#7D26C9"/>
<path fill-rule="evenodd" clip-rule="evenodd" d="M192.317 91.729C191.78 91.729 191.206 91.8417 190.594 92.0484C189.276 92.5275 187.845 93.3636 186.31 94.7352C184.832 96.0599 183.514 97.5348 182.507 99.1694C181.453 100.757 180.709 102.439 180.182 104.233C179.607 103.932 178.958 103.782 178.271 103.782C177.762 103.782 177.235 103.867 176.689 104.026C175.427 104.449 173.94 105.398 172.359 106.713C169.45 109.193 167.491 112.096 166.437 115.319C166.013 114.417 165.91 114.05 165.486 113.148C162.474 115.629 160.986 116.84 157.87 119.321C160.148 126.291 161.043 129.88 162.474 137.311C165.91 134.944 167.491 133.732 170.88 131.402C170.033 127.137 169.506 125.023 168.442 120.955C168.235 120.222 168.179 119.377 168.395 118.588C168.555 117.799 168.922 117.057 169.393 116.267C169.873 115.525 170.457 114.839 171.191 114.257C171.775 113.787 172.255 113.524 172.782 113.411C172.914 113.402 173.027 113.393 173.14 113.393C173.535 113.393 173.827 113.477 174.157 113.675C174.58 113.947 174.844 114.37 174.947 114.896C176.218 119.48 176.849 121.754 177.8 126.498C181.085 124.178 182.667 122.966 185.84 120.589C184.832 116.051 184.305 113.834 183.091 109.409C182.827 108.667 182.827 107.878 182.931 106.976C183.147 106.131 183.411 105.295 183.881 104.496C184.362 103.707 184.889 103.021 185.576 102.495C186.301 101.819 186.988 101.537 187.666 101.537C187.732 101.537 187.788 101.537 187.845 101.546C188.532 101.706 189.069 102.232 189.332 103.237C190.707 108.141 191.337 110.621 192.448 115.629C195.517 113.308 197.052 112.096 200.168 109.719C198.897 103.97 198.153 101.18 196.515 95.5807C196.045 94.0025 195.301 92.8376 194.246 92.2551C193.653 91.9075 193.013 91.729 192.317 91.729Z" fill="#7D26C9"/>
<path fill-rule="evenodd" clip-rule="evenodd" d="M212.84 80.0984C213.518 80.0984 214.12 80.3239 214.657 80.8124C215.344 81.3948 215.815 82.184 216.078 83.2362C216.342 84.3447 216.398 85.4532 216.295 86.7215C216.078 88.0367 215.768 89.1453 215.231 90.3102C214.657 91.4188 214.017 92.3676 213.169 92.997C212.379 93.5795 211.588 93.8989 210.797 94.0022C209.95 94.0022 209.206 93.7392 208.622 93.1567C208.048 92.5743 207.568 91.7851 207.304 90.7799C207.041 89.7747 206.937 88.6192 207.097 87.4073C207.201 86.1954 207.568 85.0869 208.095 83.9219C208.622 82.8698 209.206 81.9209 210.053 81.2351C210.844 80.5493 211.644 80.1735 212.435 80.1266C212.576 80.1078 212.708 80.0984 212.84 80.0984ZM216.747 70.7885C216.022 70.7885 215.278 70.9106 214.497 71.1548C212.435 71.8406 210.373 73.2122 208.199 75.1099C206.09 77.064 204.235 79.2811 202.757 81.8646C201.223 84.3447 200.215 86.9282 199.688 89.6244C199.114 92.2549 199.161 94.7914 199.801 97.2151C200.432 99.5356 201.486 101.18 203.077 102.016C204.075 102.608 205.167 102.899 206.382 102.899C207.022 102.899 207.7 102.814 208.415 102.655C210.42 102.175 212.595 101.067 214.864 99.3289C216.982 97.5909 218.827 95.5335 220.362 93.1004C221.953 90.6202 223.007 88.0367 223.534 85.1902C224.061 82.3906 224.014 79.7038 223.327 77.064C222.687 74.4805 221.473 72.6298 219.938 71.634C218.94 71.0797 217.876 70.7885 216.747 70.7885Z" fill="#7D26C9"/>
<path fill-rule="evenodd" clip-rule="evenodd" d="M239.642 47.5558C239.265 47.5558 238.861 47.6122 238.446 47.7343C237.176 48.0443 235.858 48.9462 234.483 50.2614C231.838 52.9012 230.2 56.1705 229.616 60.182C229.032 58.9701 228.872 58.2843 228.298 57.1194C225.756 59.5995 224.485 60.7644 221.84 63.2916C224.278 71.2111 226.5 79.1776 228.402 87.3039C231.198 84.9271 232.628 83.7152 235.377 81.4981C234.106 76.0587 233.419 73.3718 231.998 68.1485C231.734 67.0963 231.678 66.0347 231.734 64.9262C231.885 63.874 232.148 62.9252 232.572 61.9763C232.996 61.0745 233.579 60.3417 234.219 59.6559C234.916 59.0359 235.556 58.6695 236.131 58.6695C236.291 58.6695 236.441 58.6977 236.592 58.754C237.232 58.9701 237.806 59.7029 238.126 60.9711C239.764 66.8802 240.508 69.8395 241.883 75.9553C244.632 73.5785 246.006 72.3666 248.698 70.0462C247.013 62.9252 246.11 59.4398 244.264 52.5818C243.728 50.5808 242.89 49.2092 241.883 48.3637C241.195 47.8282 240.461 47.5558 239.642 47.5558Z" fill="#7D26C9"/>
<path fill-rule="evenodd" clip-rule="evenodd" d="M264.194 20.9316C261.182 24.0976 259.647 25.7322 256.522 28.9451C255.947 31.9514 255.571 33.4827 254.94 36.4889C254.309 39.3918 254.036 40.8761 253.462 43.6663C252.935 41.4022 252.558 40.2937 251.975 37.9732C250.497 32.5338 249.706 29.847 248.068 24.5673C245.479 27.3105 244.151 28.6821 241.562 31.4253C245.262 43.4033 248.538 55.4376 251.504 67.6223C254.196 65.3018 255.524 64.0899 258.169 61.7131C257.369 58.2841 256.945 56.5368 256.051 53.1641C256.475 51.6892 256.682 51.0034 257.058 49.5285C257.953 50.3176 258.433 50.7404 259.271 51.5295C261.332 53.3238 262.34 54.2163 264.241 56.1704C267.414 53.2675 268.948 51.8489 272.074 48.993C267.367 44.9346 264.881 43.0838 259.958 39.6079C261.445 33.3793 262.867 27.2072 264.194 20.9316Z" fill="#7D26C9"/>
<path fill-rule="evenodd" clip-rule="evenodd" d="M279.05 6.57678C277.252 6.57678 275.03 7.94837 272.489 10.6916C269.693 13.6508 267.838 16.704 266.887 19.87C265.936 23.0923 265.88 26.0985 266.68 29.1048C267.367 31.5849 268.365 33.0598 269.796 33.539C270.088 33.6423 270.408 33.6893 270.747 33.6893C271.999 33.6893 273.562 32.9941 275.351 31.5849C276.772 30.5327 277.459 30.0066 278.834 28.9451C279.446 28.4378 279.963 28.2499 280.368 28.2499C280.425 28.2499 280.481 28.2593 280.528 28.2593C281.008 28.3156 281.272 28.7384 281.479 29.5275C281.743 30.4764 281.696 31.4816 281.272 32.4304C280.848 33.4356 280.208 34.3845 279.21 35.3803C278.241 36.2634 277.469 36.7331 276.866 36.7331C276.781 36.7331 276.697 36.7237 276.612 36.7049C276.038 36.6016 275.511 35.9627 275.087 34.9106C272.762 37.3907 271.538 38.6026 269.165 40.9794C270.314 44.3426 271.961 46.0618 274.07 46.0618C275.831 46.0618 277.921 44.8781 280.321 42.4543C283.277 39.7111 285.292 36.7049 286.45 33.4356C287.617 30.1569 287.664 26.5213 286.77 22.6132C285.97 19.1936 284.567 17.4838 282.581 17.4838C281.291 17.4838 279.766 18.2072 277.996 19.6633C276.612 20.7719 275.981 21.3543 274.607 22.4065C273.816 23.0359 273.232 23.299 272.809 23.299C272.338 23.299 272.074 22.989 271.858 22.2468C271.651 21.5046 271.801 20.6685 272.121 19.823C272.489 18.9211 273.072 18.132 273.863 17.2395C274.87 16.2343 275.718 15.7082 276.245 15.7082C276.772 15.7082 277.252 16.1779 277.619 17.1268C279.945 14.6466 281.055 13.3878 283.277 10.9076C282.27 8.05171 280.848 6.68012 279.05 6.57678Z" fill="#7D26C9"/>
<path fill-rule="evenodd" clip-rule="evenodd" d="M159.141 166.538C159.038 166.538 158.934 166.538 158.821 166.547C157.974 166.594 157.023 166.857 156.025 167.393C154.914 167.966 154.067 168.605 153.163 169.497C152.316 170.286 151.629 171.235 151.158 172.193C150.678 173.142 150.414 173.988 150.414 174.777C150.414 175.622 150.631 176.195 151.102 176.674C151.582 177.144 152.269 177.36 153.06 177.36C153.907 177.36 154.801 177.097 155.865 176.618C156.863 176.148 157.814 175.462 158.718 174.561C159.565 173.715 160.252 172.823 160.779 171.817C161.307 170.822 161.57 169.92 161.57 169.074C161.57 168.229 161.307 167.599 160.836 167.12C160.412 166.707 159.876 166.538 159.141 166.538Z" fill="#7D26C9"/>
<path fill-rule="evenodd" clip-rule="evenodd" d="M200.065 128.809C199.811 128.809 199.547 128.828 199.265 128.875C197.947 129.035 196.469 129.72 194.831 130.773C193.24 131.938 191.818 133.196 190.594 134.681C189.38 136.156 188.382 137.79 187.638 139.585C186.904 138.899 186.019 138.608 184.946 138.608C184.776 138.608 184.597 138.617 184.409 138.636C183.148 138.843 181.66 139.425 179.919 140.59C176.85 142.591 174.581 145.231 172.943 148.444C172.726 147.448 172.679 146.969 172.463 145.964C169.243 147.974 167.652 148.979 164.319 150.98C164.96 157.735 165.063 164.753 164.743 171.507C168.443 169.713 170.194 168.764 173.894 166.857C173.997 161.897 173.941 159.576 173.734 154.888C173.677 154.09 173.837 153.197 174.157 152.408C174.421 151.506 174.891 150.764 175.475 150.031C176.115 149.289 176.803 148.707 177.593 148.237C178.177 147.918 178.704 147.711 179.175 147.711C179.655 147.711 180.079 147.918 180.389 148.237C180.709 148.66 180.869 149.083 180.926 149.712C181.293 154.888 181.35 157.575 181.35 163.005C184.833 161.107 186.584 160.215 190.02 158.364C189.964 153.141 189.86 150.557 189.483 145.597C189.38 144.752 189.54 143.859 189.803 143.014C190.067 142.065 190.547 141.276 191.074 140.534C191.602 139.744 192.289 139.162 192.976 138.683C193.55 138.326 194.077 138.119 194.567 138.119C194.802 138.119 195.028 138.166 195.254 138.269C195.941 138.532 196.252 139.162 196.412 140.327C196.892 145.813 197.052 148.66 197.203 154.409C200.536 152.511 202.174 151.666 205.45 149.768C205.186 143.22 204.923 140.054 204.235 133.835C204.075 131.985 203.501 130.613 202.654 129.767C201.938 129.138 201.082 128.809 200.065 128.809Z" fill="#7D26C9"/>
<path fill-rule="evenodd" clip-rule="evenodd" d="M220.795 120.937C220.927 120.937 221.068 120.946 221.209 120.955C222 121.068 222.687 121.491 223.215 122.224C223.751 122.966 224.062 123.971 224.222 125.079C224.325 126.291 224.278 127.55 223.958 128.875C223.591 130.19 223.168 131.355 222.48 132.407C221.793 133.459 221.002 134.145 220.202 134.681C219.562 135.075 218.959 135.263 218.357 135.263C218.159 135.263 217.971 135.244 217.773 135.207C216.982 135.103 216.342 134.624 215.815 133.882C215.344 133.149 215.024 132.201 214.864 131.092C214.761 129.88 214.864 128.715 215.128 127.447C215.495 126.235 215.975 125.079 216.559 124.018C217.246 123.022 217.98 122.177 218.781 121.594C219.44 121.153 220.099 120.937 220.795 120.937ZM225.097 112.087C224.796 112.087 224.486 112.106 224.165 112.153C222.217 112.359 220.042 113.308 217.83 114.896C215.608 116.427 213.65 118.485 211.908 120.749C210.157 123.069 208.839 125.549 207.935 128.236C207.098 130.932 206.721 133.572 207.041 136.315C207.201 138.899 208.048 140.9 209.31 142.224C210.534 143.436 212.144 144.075 214.055 144.075C214.13 144.075 214.205 144.066 214.281 144.066C216.295 144.019 218.517 143.333 220.842 142.008C223.168 140.74 225.173 138.899 226.971 136.625C228.712 134.361 230.143 131.825 230.991 128.922C231.885 126.028 232.149 123.172 231.838 120.27C231.461 117.32 230.511 115.159 229.193 113.834C228.082 112.679 226.698 112.087 225.097 112.087Z" fill="#7D26C9"/>
<path fill-rule="evenodd" clip-rule="evenodd" d="M249.414 92.8845C249.348 92.8845 249.292 92.8939 249.226 92.8939C248.012 92.9973 246.637 93.5797 245.263 94.6319C242.514 96.7926 240.668 99.8552 239.661 103.923C239.341 102.495 239.134 101.809 238.814 100.438C236.121 102.439 234.747 103.444 232.102 105.445C233.58 114.313 234.69 123.229 235.434 132.2C238.447 130.35 239.925 129.401 242.777 127.55C242.25 121.538 241.883 118.531 241.092 112.679C240.932 111.467 240.932 110.358 241.139 109.25C241.356 108.188 241.779 107.239 242.25 106.394C242.674 105.501 243.304 104.872 244.048 104.289C244.575 103.895 245.103 103.679 245.564 103.679C245.846 103.679 246.1 103.763 246.326 103.923C247.014 104.289 247.381 105.238 247.588 106.61C248.539 113.148 248.962 116.427 249.602 123.285C252.511 121.434 253.99 120.542 256.795 118.635C256.211 112.2 255.307 105.708 254.31 99.2728C253.99 97.0557 253.302 95.4774 252.455 94.3689C251.551 93.3636 250.553 92.8845 249.414 92.8845Z" fill="#7D26C9"/>
<path fill-rule="evenodd" clip-rule="evenodd" d="M275.878 71.0515C272.809 73.635 271.17 74.9502 268.054 77.5901C267.207 80.5493 266.84 82.1276 265.936 85.0869C265.192 87.877 264.825 89.305 263.978 92.1046C263.611 89.6244 263.404 88.3562 262.98 85.876C261.916 79.9669 261.389 77.0076 260.175 71.3146C257.529 73.5786 256.211 74.6872 253.51 76.9606C256.258 90.1505 258.217 103.444 259.751 116.793C262.604 114.896 263.978 114.05 266.783 112.152C266.303 108.244 266.096 106.347 265.569 102.551C266.096 101.18 266.36 100.437 266.887 99.0095C267.678 100.015 268.054 100.541 268.845 101.649C270.587 103.97 271.491 105.238 273.232 107.718C276.565 105.445 278.203 104.393 281.432 102.072C277.196 96.5857 274.974 94.0492 270.54 89.305C272.385 83.2362 274.239 77.1673 275.878 71.0515Z" fill="#7D26C9"/>
<path fill-rule="evenodd" clip-rule="evenodd" d="M290.084 59.5902C288.53 59.5902 286.694 60.5578 284.492 62.3992C281.696 64.8229 279.681 67.5661 278.57 70.5724C277.516 73.5786 277.252 76.7445 277.779 80.0232C278.259 82.8698 279.097 84.6077 280.472 85.3969C280.989 85.7069 281.592 85.8666 282.26 85.8666C283.315 85.8666 284.557 85.4814 285.979 84.7111C287.4 83.9219 288.144 83.4992 289.519 82.7664C290.027 82.5409 290.46 82.4 290.799 82.4C290.959 82.4 291.091 82.4282 291.204 82.494C291.627 82.71 291.9 83.2361 292.004 84.138C292.164 85.1902 292.004 86.139 291.627 87.0879C291.204 88.0367 290.47 88.8259 289.415 89.6244C288.54 90.2162 287.871 90.5075 287.353 90.5075C287.175 90.5075 287.014 90.4793 286.873 90.4135C286.243 90.1505 285.762 89.4083 285.442 88.1401C282.957 90.0941 281.743 91.0993 279.257 93.0534C280.199 97.4218 281.997 99.6389 284.642 99.6389C286.177 99.6389 288.003 98.8874 290.102 97.3748C293.162 95.2705 295.337 92.5743 296.655 89.4083C297.926 86.2424 298.293 82.447 297.662 78.2289C297.003 73.9168 295.459 71.7843 293.068 71.7843C291.995 71.7843 290.761 72.207 289.359 73.0525C287.984 73.8417 287.353 74.2644 285.922 75.0629C285.311 75.3823 284.783 75.589 284.416 75.589C284.303 75.589 284.209 75.5702 284.124 75.5327C283.701 75.4293 283.437 75.0066 283.277 74.2174C283.174 73.3156 283.277 72.5264 283.701 71.7373C284.124 70.8918 284.708 70.1496 285.499 69.5202C286.384 68.731 287.137 68.3928 287.674 68.3928C287.739 68.3928 287.815 68.4022 287.881 68.4116C288.408 68.5713 288.775 69.1538 289.142 70.2624C291.477 68.2519 292.635 67.1434 294.913 65.1424C294.066 61.9764 292.738 60.1821 290.997 59.7029C290.705 59.6278 290.404 59.5902 290.084 59.5902Z" fill="#7D26C9"/>
<path fill-rule="evenodd" clip-rule="evenodd" d="M153.973 204.247C153.474 204.247 152.918 204.37 152.316 204.633C151.365 204.952 150.414 205.581 149.463 206.38C148.569 207.169 147.722 208.062 147.138 209.067C146.507 210.072 146.084 211.021 145.867 211.913C145.603 212.862 145.66 213.708 145.923 214.29C146.187 214.873 146.714 215.239 147.401 215.455C147.665 215.511 147.938 215.54 148.221 215.54C148.729 215.54 149.275 215.446 149.887 215.239C150.838 214.873 151.789 214.347 152.692 213.604C153.643 212.862 154.434 212.026 155.121 211.021C155.808 210.016 156.288 209.01 156.496 208.062C156.656 207.113 156.656 206.324 156.336 205.638C156.025 204.952 155.545 204.586 154.801 204.37C154.547 204.294 154.274 204.247 153.973 204.247Z" fill="#7D26C9"/>
<path fill-rule="evenodd" clip-rule="evenodd" d="M200.62 170.887C199.472 170.887 198.126 171.301 196.629 171.977C194.774 172.823 193.24 173.931 191.762 175.359C190.284 176.731 189.013 178.365 187.958 180.207C187.271 179.155 186.264 178.572 185.049 178.412C184.861 178.394 184.673 178.375 184.475 178.375C183.355 178.375 182.009 178.751 180.389 179.474C177.066 181.052 174.261 183.429 172.095 186.802C172.143 185.59 172.143 185.007 172.199 183.795C168.706 185.327 166.908 186.069 163.321 187.591C162.258 195.717 160.723 203.74 158.774 211.65C162.521 210.279 164.423 209.593 168.396 208.278C169.77 202.894 170.617 200.095 171.455 194.505C171.615 193.5 171.935 192.551 172.406 191.706C172.886 190.757 173.47 189.968 174.204 189.282C174.948 188.54 175.692 188.014 176.586 187.647C176.981 187.478 177.358 187.403 177.687 187.403C177.885 187.403 178.064 187.431 178.224 187.488C178.704 187.591 179.071 187.91 179.288 188.389C179.438 188.859 179.551 189.498 179.438 190.231C178.648 196.3 177.697 199.465 176.162 205.431C179.862 204.106 181.66 203.421 185.36 202.105C186.791 196.403 187.798 193.453 188.486 187.591C188.589 186.595 188.853 185.59 189.333 184.641C189.756 183.692 190.331 182.903 191.018 182.161C191.705 181.419 192.449 180.893 193.193 180.573C193.635 180.338 194.078 180.226 194.463 180.226C194.849 180.226 195.198 180.338 195.461 180.573C195.989 181.052 196.252 181.898 196.149 183.269C195.518 189.705 194.454 192.974 193.033 199.259C196.676 197.934 198.474 197.305 202.014 195.98C203.501 188.812 204.499 185.064 204.979 177.83C205.186 175.622 204.876 173.931 204.188 172.766C203.501 171.658 202.494 171.028 201.176 170.925C200.997 170.897 200.809 170.887 200.62 170.887Z" fill="#7D26C9"/>
<path fill-rule="evenodd" clip-rule="evenodd" d="M222.65 167.27C222.979 167.27 223.29 167.346 223.591 167.496C224.326 167.806 224.966 168.445 225.389 169.45C225.757 170.342 225.964 171.554 225.917 172.926C225.813 174.298 225.493 175.726 224.909 177.097C224.222 178.412 223.478 179.624 222.584 180.629C221.737 181.635 220.786 182.32 219.835 182.687C219.327 182.912 218.856 183.016 218.442 183.016C218.075 183.016 217.755 182.94 217.453 182.79C216.766 182.424 216.295 181.794 216.032 180.846C215.768 179.887 215.655 178.732 215.768 177.417C215.815 176.045 216.135 174.72 216.606 173.405C217.143 172.033 217.773 170.822 218.564 169.816C219.355 168.811 220.202 168.125 221.106 167.703C221.671 167.421 222.179 167.27 222.65 167.27ZM226.764 158.139C225.088 158.139 223.281 158.675 221.266 159.689C218.828 160.901 216.719 162.583 214.601 164.753C212.596 166.857 210.901 169.337 209.574 172.193C208.199 174.983 207.465 177.99 207.201 181.156C207.041 184.321 206.881 186.642 207.729 188.389C208.623 190.127 210.054 191.132 212.012 191.555C212.596 191.677 213.217 191.743 213.876 191.743C215.363 191.743 217.001 191.414 218.724 190.757C221.266 189.808 223.695 188.333 225.917 186.276C228.138 184.275 229.936 181.682 231.415 178.732C232.845 175.726 233.9 172.56 233.947 169.234C234.107 165.805 233.58 163.165 232.422 161.324C231.254 159.529 229.72 158.421 227.762 158.205C227.432 158.167 227.103 158.139 226.764 158.139Z" fill="#7D26C9"/>
<path fill-rule="evenodd" clip-rule="evenodd" d="M254.262 143.343C253.189 143.343 251.994 143.671 250.76 144.329C247.804 145.964 245.639 148.923 244.104 153.094C243.888 151.45 243.841 150.661 243.728 149.026C240.875 150.614 239.397 151.3 236.545 152.878C236.592 163.118 236.065 173.189 235.321 183.429C238.654 182.104 240.292 181.475 243.784 180.16C243.888 173.405 244.368 169.92 244.472 163.165C244.472 161.793 244.632 160.525 244.999 159.37C245.319 158.205 245.79 157.209 246.373 156.41C247.013 155.621 247.701 154.992 248.435 154.616C248.83 154.409 249.216 154.306 249.574 154.306C250.017 154.306 250.412 154.475 250.713 154.832C251.287 155.415 251.56 156.467 251.56 158.101C251.56 164.49 251.184 170.765 251.287 177.144C254.516 175.772 256.155 175.199 259.271 173.875C259.12 166.491 259.12 159.107 259.007 151.722C258.96 149.186 258.536 147.232 257.793 145.813C257.105 144.442 256.051 143.596 254.884 143.38C254.686 143.352 254.479 143.343 254.262 143.343Z" fill="#7D26C9"/>
<path fill-rule="evenodd" clip-rule="evenodd" d="M267.838 122.75C264.985 124.497 263.611 125.39 260.759 127.137C261.756 142.225 261.869 157.312 262.444 172.456C265.616 171.084 267.151 170.502 270.163 169.177C269.796 164.753 269.636 162.582 269.532 158.205C270.163 156.833 270.54 156.1 271.171 154.672C271.858 156.1 272.178 156.73 272.912 158.158C274.55 161.324 275.398 162.855 277.309 166.068C280.952 164.489 282.75 163.644 286.243 162.056C282.533 156.57 279.21 150.764 275.878 145.015C278.467 139.002 280.792 132.83 283.07 126.658C279.784 128.612 278.099 129.617 274.767 131.515C273.599 134.568 273.025 136.052 271.858 139.059C270.85 141.905 270.323 143.38 269.165 146.283C269.109 143.38 269.109 142.008 268.949 139.162C268.629 132.464 268.365 129.194 267.838 122.75Z" fill="#7D26C9"/>
<path fill-rule="evenodd" clip-rule="evenodd" d="M296.824 117.968C295.515 117.968 293.971 118.503 292.211 119.584C289.255 121.378 287.033 123.811 285.706 126.818C284.388 129.88 283.757 133.149 283.964 136.898C284.181 140.054 284.812 142.271 286.026 143.483C286.788 144.254 287.824 144.639 289.095 144.639C289.839 144.639 290.676 144.498 291.58 144.225C293.058 143.756 293.746 143.54 295.224 143.07C295.544 142.976 295.835 142.92 296.09 142.92C296.429 142.92 296.711 143.014 296.918 143.22C297.342 143.54 297.605 144.122 297.662 145.127C297.812 146.283 297.605 147.335 297.125 148.237C296.654 149.186 295.911 149.815 294.8 150.454C294.103 150.783 293.51 150.961 293.021 150.961C292.663 150.961 292.352 150.867 292.107 150.661C291.477 150.191 290.997 149.242 290.733 147.758C288.144 149.289 286.873 150.031 284.181 151.506C284.99 157.425 287.447 160.393 291.062 160.393C292.371 160.393 293.84 159.999 295.44 159.21C298.773 157.631 300.985 155.255 302.312 152.192C303.63 149.082 304.007 145.071 303.63 140.327C303.207 134.671 301.569 131.881 298.5 131.881C297.728 131.881 296.871 132.06 295.911 132.407C294.489 132.886 293.746 133.149 292.371 133.675C291.957 133.816 291.58 133.882 291.26 133.882C290.968 133.882 290.724 133.826 290.516 133.732C290.149 133.459 289.942 132.933 289.886 132.088C289.829 131.139 289.989 130.35 290.469 129.504C290.94 128.715 291.627 128.133 292.475 127.55C293.284 127.118 293.887 126.902 294.357 126.902C294.565 126.902 294.743 126.949 294.913 127.024C295.44 127.287 295.807 128.029 295.967 129.298C298.453 127.71 299.667 126.977 302.096 125.343C301.569 121.754 300.514 119.377 298.82 118.485C298.236 118.137 297.568 117.968 296.824 117.968Z" fill="#7D26C9"/>
<path fill-rule="evenodd" clip-rule="evenodd" d="M142.864 243.047C142.478 243.047 142.035 243.103 141.537 243.207C140.529 243.413 139.635 243.892 138.627 244.465C137.677 245.151 136.773 245.893 136.039 246.683C135.295 247.472 134.824 248.374 134.504 249.163C134.241 249.952 134.184 250.694 134.344 251.323C134.551 251.906 135.031 252.329 135.719 252.592C136.086 252.733 136.472 252.798 136.886 252.798C137.262 252.798 137.648 252.742 138.044 252.648C139.051 252.432 140.002 252.066 141.009 251.483C142.007 250.957 142.854 250.328 143.645 249.426C144.445 248.58 144.916 247.744 145.236 246.899C145.603 245.997 145.603 245.208 145.396 244.625C145.18 243.996 144.709 243.517 144.022 243.254C143.683 243.113 143.306 243.047 142.864 243.047Z" fill="#7D26C9"/>
<path fill-rule="evenodd" clip-rule="evenodd" d="M191.902 216.855C190.923 216.855 189.85 217.024 188.692 217.353C186.734 217.935 184.889 218.771 183.251 219.936C181.556 221.045 180.022 222.473 178.6 224.154C178.12 222.943 177.226 222.2 176.115 221.937C175.719 221.853 175.296 221.806 174.825 221.806C173.874 221.806 172.763 221.994 171.455 222.417C167.972 223.469 164.959 225.582 162.314 228.589C162.577 227.424 162.737 226.851 163.001 225.686C159.508 226.738 157.767 227.32 154.33 228.429C152.052 235.813 149.623 243.15 147.082 250.431C150.678 249.482 152.532 249.116 156.496 248.11C158.134 243.207 158.981 240.726 160.516 235.71C160.836 234.761 161.259 233.915 161.834 233.126C162.474 232.337 163.104 231.651 163.952 231.069C164.743 230.543 165.533 230.12 166.437 229.857C166.757 229.754 167.058 229.697 167.331 229.697C167.595 229.697 167.84 229.754 168.019 229.857C168.499 230.064 168.762 230.383 168.922 230.853C169.026 231.332 169.026 231.914 168.866 232.6C167.228 238.246 166.437 240.989 164.743 246.476C168.706 245.687 170.721 245.367 174.844 244.625C176.162 239.298 176.849 236.612 178.177 231.276C178.384 230.327 178.807 229.434 179.391 228.589C180.022 227.8 180.662 227.057 181.453 226.428C182.3 225.846 183.091 225.423 183.881 225.216C184.296 225.113 184.663 225.056 184.992 225.056C185.548 225.056 185.981 225.216 186.31 225.582C186.847 226.005 186.998 226.954 186.734 228.166C185.416 234.235 184.785 237.241 183.561 243.15C187.798 242.464 189.963 242.145 194.246 241.516C195.254 234.761 195.781 231.332 196.939 224.418C197.259 222.36 197.155 220.679 196.515 219.41C195.941 218.198 194.934 217.353 193.559 217.033C193.041 216.911 192.486 216.855 191.902 216.855Z" fill="#7D26C9"/>
<path fill-rule="evenodd" clip-rule="evenodd" d="M217.104 217.193C217.801 217.193 218.469 217.343 219.044 217.663C219.938 218.142 220.578 218.828 221.105 219.936C221.689 220.988 221.84 222.2 221.84 223.469C221.792 224.84 221.529 226.165 220.945 227.377C220.314 228.589 219.514 229.641 218.516 230.439C217.509 231.275 216.398 231.755 215.231 231.914C214.948 231.952 214.656 231.971 214.384 231.971C213.546 231.971 212.774 231.792 212.058 231.435C211.107 231.012 210.42 230.28 209.949 229.274C209.526 228.222 209.309 227.114 209.422 225.845C209.573 224.577 209.949 223.262 210.58 222.097C211.267 220.885 212.058 219.88 213.018 218.987C214.016 218.142 215.024 217.559 216.078 217.296C216.426 217.231 216.765 217.193 217.104 217.193ZM221.228 208.898C219.825 208.898 218.347 209.123 216.765 209.546C213.913 210.279 211.324 211.547 208.839 213.341C206.353 215.192 204.188 217.296 202.437 219.88C200.695 222.416 199.528 225.16 199.161 228.109C198.737 231.012 199.161 233.333 200.432 235.24C201.703 237.081 203.604 238.453 206.193 239.195C207.925 239.674 209.799 239.909 211.795 239.909C212.84 239.909 213.913 239.843 215.024 239.721C218.253 239.298 221.265 238.293 223.958 236.762C226.65 235.24 228.712 233.07 230.199 230.439C231.677 227.846 232.261 224.897 232.148 221.627C232.101 218.245 231.254 215.502 229.879 213.445C228.448 211.34 226.65 210.016 224.325 209.33C223.336 209.029 222.31 208.898 221.228 208.898Z" fill="#7D26C9"/>
<path fill-rule="evenodd" clip-rule="evenodd" d="M254.535 199.541C253.698 199.541 252.822 199.672 251.928 199.945C248.332 200.941 245.743 203.477 244.048 207.432C243.784 205.798 243.624 204.896 243.417 203.214C240.028 204.163 238.287 204.633 234.794 205.581C234.954 215.718 235.481 225.845 236.328 235.973C240.668 235.39 242.89 235.127 247.277 234.601C246.326 227.903 245.846 224.577 245.215 217.822C245.055 216.451 245.215 215.239 245.526 214.187C245.95 213.078 246.373 212.233 247.117 211.491C247.851 210.758 248.699 210.279 249.602 210.072C249.904 210.006 250.205 209.969 250.487 209.969C251.316 209.969 252.031 210.26 252.662 210.805C253.462 211.547 253.989 212.759 254.197 214.346C255.044 220.678 256.155 227.057 257.426 233.333C261.709 232.76 263.818 232.497 268.054 231.858C266.303 224.417 264.665 217.033 263.244 209.546C262.82 206.906 262.076 204.792 260.918 203.158C259.751 201.579 258.48 200.471 256.946 199.945C256.183 199.672 255.373 199.541 254.535 199.541Z" fill="#7D26C9"/>
<path fill-rule="evenodd" clip-rule="evenodd" d="M271.537 181.156C268.318 182.368 266.68 182.903 263.404 184.115C265.352 200.095 268.421 215.558 272.385 231.172C276.565 230.589 278.57 230.279 282.646 229.641C281.272 225.216 280.584 223.102 279.417 218.668C280.001 217.4 280.264 216.714 280.848 215.455C282.166 216.977 282.75 217.775 284.068 219.307C287.137 222.783 288.671 224.633 291.9 228.166C296.598 227.377 298.876 226.897 303.263 226.005C297.022 219.673 290.893 213.238 284.971 206.587C287.4 199.729 288.455 196.196 290.573 188.962C286.77 190.287 284.811 190.87 280.952 192.241C279.944 195.135 279.474 196.563 278.466 199.465C277.572 202.312 277.092 203.637 276.141 206.38C275.51 203.421 275.237 201.889 274.606 198.939C273.128 191.818 272.488 188.277 271.537 181.156Z" fill="#7D26C9"/>
<path fill-rule="evenodd" clip-rule="evenodd" d="M304.553 182.922C303.329 182.922 302.011 183.213 300.571 183.796C297.285 185.064 295.064 187.121 293.906 190.024C292.738 192.814 292.691 196.196 293.849 200.151C294.8 203.421 296.288 205.854 298.293 207.376C300.016 208.653 302.134 209.33 304.61 209.33C305.014 209.33 305.429 209.32 305.852 209.283C307.707 209.067 308.601 209.01 310.343 208.804C310.484 208.794 310.625 208.794 310.757 208.794C311.473 208.794 312.075 208.926 312.565 209.283C313.205 209.649 313.675 210.382 314.052 211.387C314.523 212.599 314.626 213.604 314.259 214.45C313.939 215.239 313.045 215.821 311.774 216.188C311.275 216.329 310.795 216.404 310.333 216.404C309.599 216.404 308.931 216.216 308.338 215.821C307.49 215.239 306.596 214.13 305.852 212.599C302.84 213.604 301.258 214.083 298.029 215.032C300.317 221.063 305.626 225.592 311.962 225.592C312.932 225.592 313.93 225.488 314.946 225.263C318.75 224.37 321.075 222.416 321.922 219.513C322.723 216.667 322.082 212.599 320.124 207.639C317.573 201.128 314.382 197.906 309.759 197.906C309.223 197.906 308.658 197.953 308.074 198.038C306.483 198.357 305.589 198.413 303.894 198.676C303.678 198.695 303.461 198.714 303.254 198.714C302.604 198.714 302.021 198.582 301.625 198.301C301.098 197.991 300.618 197.408 300.354 196.459C300.091 195.454 300.147 194.665 300.571 193.923C300.985 193.19 301.729 192.608 302.633 192.288C303.254 192.044 303.809 191.931 304.299 191.931C304.751 191.931 305.146 192.035 305.485 192.241C306.219 192.608 306.803 193.5 307.443 194.825C310.032 193.716 311.303 193.077 313.779 191.865C312.197 188.014 310.343 185.327 308.234 183.955C307.104 183.269 305.89 182.922 304.553 182.922Z" fill="#7D26C9"/>
<path fill-rule="evenodd" clip-rule="evenodd" d="M128.291 277.966C128.046 277.966 127.792 277.985 127.529 278.023C126.521 278.126 125.514 278.446 124.507 278.925C123.405 279.498 122.558 280.08 121.711 280.822C120.92 281.555 120.336 282.297 119.96 283.04C119.592 283.829 119.432 284.514 119.649 285.097C119.856 285.726 120.233 286.205 120.92 286.469C121.409 286.713 122.04 286.797 122.821 286.797C123.038 286.797 123.264 286.797 123.509 286.779C124.507 286.675 125.514 286.469 126.521 285.989C127.529 285.52 128.479 284.984 129.27 284.251C130.061 283.509 130.701 282.776 131.012 281.978C131.332 281.245 131.492 280.503 131.275 279.817C131.068 279.131 130.701 278.662 130.014 278.342C129.505 278.107 128.95 277.966 128.291 277.966Z" fill="#7D26C9"/>
<path fill-rule="evenodd" clip-rule="evenodd" d="M181.039 260.079C180.521 260.079 179.994 260.098 179.438 260.136C177.169 260.295 175.004 260.821 173.093 261.723C171.031 262.569 169.29 263.677 167.755 265.049C167.068 263.828 166.07 262.992 164.743 262.512C163.896 262.212 162.822 262.052 161.608 262.052C160.93 262.052 160.215 262.099 159.461 262.193C155.602 262.672 152.316 264.25 149.417 266.731C149.784 265.678 149.887 265.152 150.207 264.044C146.451 264.57 144.653 264.833 141.217 265.519C138.468 272.33 135.512 279.028 132.546 285.726C136.406 285.36 138.468 285.247 142.751 284.984C144.606 280.343 145.5 278.079 147.242 273.382C147.618 272.48 148.089 271.747 148.729 271.108C149.36 270.423 150.151 269.897 151.055 269.427C151.902 269.004 152.853 268.685 153.804 268.628C153.992 268.609 154.171 268.591 154.34 268.591C154.83 268.591 155.244 268.703 155.602 268.901C156.129 269.164 156.392 269.53 156.6 270C156.76 270.479 156.76 271.108 156.553 271.691C154.801 276.914 153.907 279.554 152.165 284.721C156.816 284.618 159.245 284.618 164.216 284.618C165.487 279.61 166.174 277.074 167.492 271.954C167.755 271.108 168.179 270.272 168.866 269.53C169.506 268.788 170.297 268.262 171.248 267.792C172.199 267.416 173.15 267.153 174.157 267.05C174.261 267.05 174.364 267.041 174.468 267.041C175.579 267.041 176.435 267.313 177.113 267.896C177.857 268.478 178.12 269.37 177.857 270.582C176.689 276.332 176.162 279.131 175.004 284.834C180.286 284.937 182.931 284.984 188.485 285.2C189.22 278.605 189.596 275.336 190.443 268.685C190.594 266.684 190.283 264.993 189.38 263.677C188.532 262.306 187.271 261.348 185.52 260.774C184.192 260.286 182.705 260.079 181.039 260.079Z" fill="#7D26C9"/>
<path fill-rule="evenodd" clip-rule="evenodd" d="M215.221 265.519C216.53 265.519 217.707 265.829 218.884 266.421C220.098 266.994 221.105 267.895 221.952 269.004C222.743 270.16 223.214 271.381 223.27 272.64C223.327 273.964 223.063 275.176 222.423 276.285C221.736 277.337 220.729 278.182 219.467 278.812C218.196 279.394 216.765 279.761 215.231 279.817C213.649 279.761 212.275 279.394 211.004 278.765C209.686 278.079 208.782 277.177 208.048 276.125C207.361 275.073 206.937 273.908 207.04 272.64C207.097 271.381 207.408 270.216 208.151 269.164C208.886 268.055 209.846 267.21 211.06 266.524C212.275 265.941 213.546 265.519 214.92 265.519C215.024 265.519 215.118 265.519 215.221 265.519ZM216.624 257.768C216.059 257.768 215.494 257.787 214.92 257.815C211.324 258.031 208.048 258.764 204.922 260.032C201.863 261.301 199.377 263.038 197.316 265.199C195.301 267.313 194.087 269.85 193.823 272.696C193.503 275.543 194.247 277.919 196.045 280.033C197.89 282.137 200.488 283.772 203.924 285.04C207.361 286.309 211.267 287.041 215.654 287.314C216.379 287.342 217.085 287.361 217.782 287.361C221.228 287.361 224.381 286.929 227.29 286.093C230.774 285.097 233.419 283.462 235.17 281.132C236.912 278.812 237.542 276.069 237.072 272.856C236.592 269.53 235.217 266.684 233.108 264.307C230.934 261.986 228.298 260.248 225.172 259.14C222.499 258.247 219.665 257.768 216.624 257.768Z" fill="#7D26C9"/>
<path fill-rule="evenodd" clip-rule="evenodd" d="M262.763 255.899C262.472 255.899 262.17 255.908 261.869 255.917C257.058 256.134 253.726 258.078 251.824 261.564C251.288 259.826 251.024 259.027 250.497 257.289C245.846 257.505 243.521 257.552 238.814 257.768C240.188 267.736 241.826 277.703 243.624 287.727C249.546 288 252.511 288.206 258.376 288.685C256.682 281.978 255.891 278.605 254.309 271.954C254.036 270.535 254.036 269.427 254.46 268.422C254.884 267.416 255.524 266.684 256.418 266.157C257.369 265.575 258.433 265.256 259.694 265.256C261.332 265.256 262.716 265.678 263.931 266.571C265.145 267.473 265.936 268.741 266.416 270.376C268.261 276.707 270.116 283.039 272.074 289.315C277.939 289.578 280.744 289.738 286.449 290.001C283.757 282.56 281.055 275.12 278.57 267.632C277.722 264.993 276.348 262.775 274.71 260.981C272.912 259.14 271.067 257.815 268.845 257.026C266.896 256.237 264.91 255.899 262.763 255.899Z" fill="#7D26C9"/>
<path fill-rule="evenodd" clip-rule="evenodd" d="M286.609 241.779C282.326 242.258 280.208 242.464 275.774 242.944C280.744 258.877 286.289 274.594 292.371 290.207C298.029 290.47 300.778 290.527 306.115 290.743C304.11 286.252 303.159 284.035 301.305 279.61C302.096 278.549 302.416 278.023 303.159 276.867C305.005 278.549 305.852 279.394 307.754 281.132C311.99 285.04 314.155 286.994 318.599 291.006C324.831 291.156 327.843 291.156 333.605 291.156C325.047 283.828 316.48 276.548 308.017 269.107C310.719 263.038 311.83 259.826 313.732 253.278C308.817 253.804 306.276 254.02 300.985 254.546C300.034 257.129 299.507 258.501 298.396 261.037C297.445 263.518 297.021 264.786 295.911 267.21C294.8 264.203 294.225 262.719 293.115 259.713C290.836 253.804 288.671 247.848 286.609 241.779Z" fill="#7D26C9"/>
<path fill-rule="evenodd" clip-rule="evenodd" d="M329.162 249.867C328.249 249.867 327.298 249.952 326.31 250.112C322.186 250.751 319.494 252.329 318.383 254.865C317.225 257.392 317.489 260.615 319.437 264.673C321.075 268.055 323.297 270.639 326.046 272.48C328.795 274.387 332.288 275.439 336.204 275.806C338.576 275.909 339.744 276.069 342.012 276.181C343.18 276.285 344.131 276.595 344.921 277.074C345.722 277.553 346.409 278.342 346.983 279.347C347.727 280.559 347.887 281.555 347.463 282.241C347.096 282.983 346.032 283.349 344.394 283.462C344.281 283.462 344.178 283.462 344.074 283.462C342.464 283.462 341.09 283.096 339.904 282.401C338.689 281.668 337.465 280.559 336.364 278.925C332.391 279.347 330.33 279.498 326.103 279.761C330.923 287.549 338.981 292.49 348.094 292.49C348.376 292.49 348.659 292.49 348.941 292.481C353.968 292.265 356.821 290.95 357.668 288.31C358.619 285.783 357.292 281.818 354.439 276.707C351.107 270.686 345.449 265.472 338.049 265.312C335.94 265.256 334.877 265.199 332.711 265.152C331.393 265.049 330.386 264.786 329.595 264.41C328.852 263.94 328.164 263.255 327.684 262.306C327.157 261.301 327.157 260.511 327.637 259.873C328.108 259.29 329.012 258.877 330.169 258.764C330.668 258.698 331.12 258.67 331.544 258.67C332.485 258.67 333.257 258.839 333.879 259.243C334.829 259.713 335.78 260.718 336.731 262.09C340.007 261.507 341.542 261.244 344.498 260.511C341.965 256.397 339.216 253.541 336.251 251.803C334.067 250.516 331.742 249.867 329.162 249.867Z" fill="#7D26C9"/>
<path fill-rule="evenodd" clip-rule="evenodd" d="M111.402 310.791C110.395 310.791 109.387 310.998 108.276 311.42C107.222 311.787 106.271 312.313 105.48 312.999C104.68 313.685 104.05 314.37 103.682 315.112C103.259 315.902 103.202 316.587 103.306 317.17C103.522 317.752 103.946 318.335 104.577 318.645C105.179 319.021 105.951 319.19 106.695 319.19C106.798 319.19 106.911 319.18 107.015 319.18C107.137 319.18 107.26 319.19 107.392 319.19C108.267 319.19 109.161 319.021 110.131 318.701C111.138 318.382 112.136 317.856 112.937 317.226C113.727 316.644 114.358 315.902 114.735 315.169C115.149 314.427 115.262 313.685 115.102 312.999C114.942 312.313 114.518 311.787 113.887 311.42C113.2 310.998 112.4 310.791 111.402 310.791Z" fill="#7D26C9"/>
<path fill-rule="evenodd" clip-rule="evenodd" d="M145.679 299.63C141.584 299.63 138.232 300.626 135.239 302.561C135.559 301.453 135.719 301.03 136.039 299.922C133.563 299.856 131.821 299.828 130.061 299.828C128.809 299.828 127.547 299.846 125.994 299.865C122.868 306.3 119.809 312.736 116.636 319.18C120.967 319.49 123.349 319.706 128.366 320.336C130.221 315.798 131.115 313.637 133.026 309.1C133.337 308.311 133.921 307.625 134.664 307.043C135.352 306.46 136.246 305.99 137.253 305.718C138.091 305.455 138.976 305.342 139.917 305.342C140.106 305.342 140.285 305.342 140.473 305.352C141.377 305.352 142.007 305.568 142.648 305.878C143.175 306.253 143.645 306.62 143.862 307.202C144.022 307.728 144.022 308.311 143.862 308.94C142.12 314.004 141.16 316.484 139.418 321.604C144.916 322.29 147.882 322.656 153.907 323.445C155.281 318.494 155.865 316.014 157.239 311.054C157.4 310.255 157.974 309.466 158.717 308.837C159.461 308.198 160.356 307.728 161.523 307.465C162.285 307.268 163.133 307.137 164.008 307.137C164.338 307.137 164.677 307.155 165.006 307.202C166.644 307.362 167.812 307.775 168.762 308.518C169.713 309.26 170.033 310.209 169.873 311.317C168.762 316.963 168.235 319.753 167.181 325.352C173.677 326.301 177.066 326.771 183.882 327.833C184.522 321.341 184.832 318.119 185.52 311.58C185.736 309.682 185.152 307.888 183.985 306.357C182.771 304.825 181.029 303.614 178.807 302.768C176.586 301.876 173.997 301.34 171.191 301.133C170.363 301.068 169.563 301.039 168.781 301.039C166.823 301.039 165.016 301.227 163.321 301.603C160.986 302.139 158.878 302.928 157.079 304.083C156.232 302.768 154.914 301.66 153.276 300.917C151.582 300.185 149.416 299.809 146.874 299.658C146.47 299.64 146.065 299.63 145.679 299.63Z" fill="#7D26C9"/>
<path fill-rule="evenodd" clip-rule="evenodd" d="M215.203 312.642C215.73 312.642 216.267 312.679 216.822 312.736C218.62 312.952 220.362 313.478 222 314.267C223.591 315.112 224.965 316.165 226.02 317.386C227.13 318.598 227.714 319.866 227.874 321.125C227.978 322.45 227.658 323.605 226.763 324.554C225.963 325.503 224.702 326.142 223.064 326.564C222.075 326.827 220.992 326.921 219.863 326.921C219.176 326.921 218.479 326.884 217.773 326.827C215.815 326.564 214.017 325.926 212.331 325.089C210.637 324.188 209.366 323.182 208.415 321.97C207.464 320.815 207.041 319.594 207.041 318.382C207.041 317.17 207.408 316.118 208.312 315.169C209.159 314.22 210.317 313.534 211.851 313.055C212.877 312.801 214.007 312.642 215.203 312.642ZM211.249 304.769C208.519 304.769 205.996 305.004 203.604 305.455C199.688 306.141 196.516 307.465 194.087 309.26C191.601 311.054 190.283 313.318 190.067 316.165C189.86 318.908 190.971 321.444 193.296 323.868C195.678 326.301 199.001 328.359 203.444 330.2C207.831 331.994 212.802 333.319 218.3 334.268C221.915 334.869 225.37 335.179 228.59 335.179C230.171 335.179 231.696 335.104 233.156 334.954C237.599 334.531 241.035 333.319 243.304 331.365C245.582 329.467 246.326 326.827 245.742 323.605C245.055 320.336 243.304 317.273 240.404 314.643C237.599 312.003 234.003 309.786 229.879 308.198C225.7 306.517 221.265 305.511 216.502 305.032C214.666 304.854 212.924 304.769 211.249 304.769Z" fill="#7D26C9"/>
<path fill-rule="evenodd" clip-rule="evenodd" d="M247.852 309.26C249.97 319.227 252.088 329.204 254.253 339.172C260.598 340.224 266.943 341.229 273.336 342.394C271.387 335.686 270.38 332.314 268.525 325.663C268.101 324.347 268.158 323.182 268.685 322.337C269.269 321.444 270.06 320.815 271.274 320.439C272.074 320.195 272.987 320.073 273.985 320.073C274.503 320.073 275.049 320.11 275.614 320.176C277.779 320.439 279.681 321.125 281.215 322.187C282.75 323.295 283.804 324.61 284.388 326.245C286.553 332.521 288.775 338.909 290.997 345.184C297.285 346.189 303.47 347.195 309.712 348.247C306.539 340.75 303.47 333.263 300.411 325.775C299.347 323.135 297.662 320.815 295.44 318.758C293.218 316.747 290.629 315.169 287.72 313.957C284.812 312.736 281.742 312.003 278.466 311.684C277.327 311.561 276.245 311.505 275.228 311.505C270.521 311.505 267.188 312.801 265.145 315.272C264.402 313.534 264.091 312.689 263.347 310.941C257.162 310.256 254.037 309.946 247.852 309.26Z" fill="#7D26C9"/>
<path fill-rule="evenodd" clip-rule="evenodd" d="M297.022 301.876C303.583 317.856 310.343 333.582 317.272 349.402C324.568 350.567 328.164 351.093 335.196 352.146C333.031 347.664 331.864 345.447 329.755 340.966C330.809 340.017 331.336 339.651 332.344 338.693C334.612 340.647 335.78 341.596 338.049 343.493C343.283 347.824 345.985 350.041 351.37 354.522C357.875 355.471 364.324 356.317 370.829 357.219C360.313 348.933 349.732 340.703 339.216 332.37C343.076 327.147 344.714 324.404 347.406 318.645C340.958 318.222 337.578 318.015 330.649 317.433C329.331 319.706 328.587 320.862 327.053 323.079C325.782 325.193 325.048 326.301 323.56 328.359C322.139 325.352 321.451 323.868 320.077 320.862C317.168 314.906 314.316 308.837 311.567 302.824C305.852 302.505 302.896 302.289 297.022 301.876Z" fill="#7D26C9"/>
<path fill-rule="evenodd" clip-rule="evenodd" d="M362.611 318.091C358.064 318.091 354.938 319.105 353.545 321.078C351.954 323.182 352.218 326.245 354.543 330.303C356.454 333.742 359.146 336.485 362.639 338.693C366.122 340.91 370.509 342.601 375.536 343.493C378.652 344.132 380.131 344.395 382.992 344.921C384.414 345.184 385.638 345.607 386.636 346.19C387.643 346.819 388.49 347.618 389.121 348.67C389.912 349.938 390.072 350.83 389.498 351.413C389.055 351.854 388.18 352.052 386.843 352.052C386.419 352.052 385.939 352.033 385.421 351.995C383.152 351.779 381.298 351.15 379.716 350.304C378.182 349.402 376.751 348.144 375.48 346.453C370.406 346.086 367.76 345.87 362.215 345.4C368.504 354.786 379.443 359.906 390.495 361.117C392.03 361.296 393.395 361.38 394.61 361.38C398.526 361.38 400.87 360.488 401.915 358.797C403.242 356.58 401.915 352.784 398.695 347.618C394.252 340.487 386.852 335.583 378.605 334.212C375.904 333.742 374.529 333.526 371.733 333.056C370.086 332.737 368.824 332.314 367.817 331.788C366.81 331.309 366.075 330.52 365.492 329.571C364.851 328.565 364.851 327.833 365.492 327.354C365.972 326.959 366.781 326.743 367.986 326.743C368.231 326.743 368.495 326.752 368.768 326.771C370.726 326.874 372.26 327.25 373.475 327.88C374.689 328.565 375.856 329.618 376.967 331.102C381.194 331.102 383.2 331.102 386.899 330.999C383.783 326.771 380.404 323.605 376.647 321.444C372.891 319.331 368.768 318.222 363.957 318.119C363.496 318.1 363.053 318.091 362.611 318.091Z" fill="#7D26C9"/>
<path fill-rule="evenodd" clip-rule="evenodd" d="M94.2398 343.014C93.4678 343.014 92.6676 343.165 91.8862 343.39C90.8318 343.71 89.9375 344.132 89.0902 344.818C88.1865 345.448 87.6593 346.133 87.2356 346.875C86.925 347.618 86.812 348.35 86.972 349.036C87.1886 349.675 87.6593 350.248 88.3465 350.671C88.9867 351.15 89.881 351.413 90.8318 351.62C91.1707 351.676 91.5097 351.695 91.8392 351.695C92.5452 351.695 93.2513 351.592 94.0044 351.413C95.0588 351.15 95.9061 350.774 96.8098 350.145C97.6571 349.562 98.2878 348.876 98.608 348.087C99.0316 347.298 99.0787 346.556 98.8715 345.823C98.7585 345.081 98.2878 344.395 97.6006 343.916C96.9134 343.446 96.0661 343.127 95.0588 343.08C94.7952 343.033 94.5128 343.014 94.2398 343.014Z" fill="#7D26C9"/>
<path fill-rule="evenodd" clip-rule="evenodd" d="M109.915 333.056C106.742 339.538 103.729 346.086 100.773 352.568C105.584 353.574 108.229 354.1 114.094 355.528C115.893 350.887 116.843 348.613 118.641 344.132C118.905 343.23 119.545 342.657 120.336 342.122C121.127 341.596 122.134 341.229 123.292 341.126C123.782 341.051 124.281 341.013 124.817 341.013C125.495 341.013 126.22 341.079 126.992 341.229C127.999 341.436 128.79 341.755 129.534 342.178C130.277 342.601 130.748 343.127 131.068 343.71C131.332 344.339 131.435 344.921 131.228 345.551C129.477 350.624 128.583 353.207 126.841 358.327C133.29 359.802 136.726 360.535 143.909 362.226C145.18 357.219 145.867 354.626 147.138 349.675C147.402 348.829 147.929 348.087 148.833 347.561C149.68 347.035 150.791 346.659 152.109 346.556C152.608 346.5 153.116 346.471 153.634 346.471C154.509 346.471 155.413 346.547 156.336 346.716C158.237 347.082 159.772 347.721 160.939 348.613C162.05 349.515 162.521 350.567 162.314 351.676C161.259 357.322 160.723 360.169 159.612 365.871C166.277 367.393 172.989 368.924 179.655 370.559C180.342 363.917 180.662 360.648 181.349 354.1C181.556 352.099 180.869 350.304 179.335 348.566C177.8 346.819 175.635 345.344 172.886 344.132C170.033 342.864 166.964 341.972 163.472 341.286C160.713 340.835 158.228 340.581 155.931 340.581C155.244 340.581 154.566 340.6 153.907 340.647C151.101 340.75 148.673 341.286 146.554 342.235C145.444 340.703 143.862 339.435 141.744 338.43C139.739 337.434 137.15 336.692 134.081 336.166C132.188 335.837 130.437 335.677 128.809 335.677C125.712 335.677 123.047 336.25 120.647 337.321C121.023 336.325 121.127 335.799 121.447 334.738C116.476 334.005 114.151 333.686 109.915 333.056Z" fill="#7D26C9"/>
<path fill-rule="evenodd" clip-rule="evenodd" d="M215.739 359.079C217.02 359.079 218.375 359.229 219.835 359.539C222.16 360.009 224.278 360.751 226.283 361.803C228.298 362.912 229.983 364.124 231.254 365.495C232.572 366.923 233.316 368.239 233.419 369.563C233.579 370.831 233.109 371.884 231.998 372.776C230.887 373.622 229.352 374.101 227.291 374.307C226.773 374.364 226.236 374.392 225.69 374.392C224.127 374.392 222.471 374.176 220.785 373.781C218.357 373.152 216.135 372.353 214.12 371.301C212.059 370.146 210.533 368.924 209.366 367.666C208.199 366.341 207.624 365.073 207.624 363.861C207.624 362.546 208.152 361.54 209.263 360.751C210.317 359.962 211.795 359.427 213.65 359.22C214.327 359.126 215.024 359.079 215.739 359.079ZM205.28 350.483C204.659 350.483 204.047 350.492 203.445 350.511C198.634 350.624 194.718 351.516 191.762 352.991C188.749 354.523 187.111 356.683 186.894 359.483C186.734 362.226 188.005 364.969 190.858 367.713C193.767 370.456 197.89 373.039 203.181 375.472C208.839 377.999 215.128 380.01 221.209 381.428C227.761 382.96 233.899 383.909 239.397 384.021C239.877 384.031 240.357 384.04 240.819 384.04C245.639 384.04 249.433 383.289 252.087 381.804C255.044 380.217 256.211 377.736 255.627 374.524C254.996 371.198 252.935 367.976 249.442 364.969C245.949 361.907 241.562 359.276 236.328 357.059C231.094 354.786 225.493 353.104 219.515 351.996C214.337 350.972 209.63 350.483 205.28 350.483Z" fill="#7D26C9"/>
<path fill-rule="evenodd" clip-rule="evenodd" d="M258.96 360.751C261.125 370.719 263.131 380.799 265.145 390.879C272.968 392.721 280.745 394.571 288.671 396.366C286.873 389.611 285.979 386.229 284.124 379.531C283.701 378.112 283.804 377.051 284.548 376.318C285.235 375.576 286.393 375.097 287.928 374.89C288.379 374.824 288.85 374.796 289.349 374.796C290.564 374.796 291.929 374.975 293.425 375.313C296.174 375.895 298.5 376.788 300.354 378.056C302.256 379.324 303.47 380.743 304.007 382.33C306.116 388.709 308.281 395.098 310.296 401.533C317.959 403.327 325.622 405.065 333.294 406.916C330.385 399.316 327.42 391.715 324.407 384.228C323.353 381.541 321.451 379.061 318.862 376.844C316.161 374.627 313.044 372.673 309.448 371.142C305.796 369.61 301.889 368.398 297.765 367.609C294.725 367.036 292.032 366.754 289.669 366.754C285.706 366.754 282.684 367.553 280.528 369.141C279.737 367.346 279.314 366.444 278.523 364.65C272.018 363.391 265.465 362.02 258.96 360.751Z" fill="#7D26C9"/>
<path fill-rule="evenodd" clip-rule="evenodd" d="M322.61 361.277C329.539 377.21 336.307 393.087 342.813 409.18C350.156 410.871 357.508 412.505 364.804 414.196C362.742 409.706 361.735 407.442 359.626 402.961C361.104 402.275 361.839 401.955 363.27 401.213C365.811 403.271 367.073 404.332 369.718 406.493C374.689 410.504 379.66 414.563 384.63 418.631C392.614 420.369 400.54 422.107 408.58 423.854C396.737 414.563 384.837 405.328 372.891 396.253C378.605 391.932 381.091 389.658 385.261 384.754C378.125 383.542 371.046 382.274 364.06 381.165C361.999 383.063 361.001 384.021 358.666 385.863C356.764 387.657 355.653 388.503 353.545 390.241C352.17 387.234 351.483 385.703 350.109 382.697C347.2 376.628 344.234 370.559 341.278 364.5C335.093 363.438 328.851 362.386 322.61 361.277Z" fill="#7D26C9"/>
<path fill-rule="evenodd" clip-rule="evenodd" d="M399.609 386.38C396.417 386.38 394.035 386.887 392.614 387.977C390.336 389.658 390.232 392.561 392.51 396.629C394.459 400.058 397.425 403.064 401.444 405.648C405.464 408.184 410.698 410.289 416.827 411.98C420.583 412.985 422.381 413.455 425.921 414.403C427.663 414.883 429.037 415.465 430.205 416.151C431.315 416.837 432.21 417.673 432.793 418.781C433.537 420.049 433.537 420.895 432.737 421.318C432.379 421.515 431.824 421.618 431.071 421.618C430.195 421.618 429.065 421.468 427.663 421.158C424.867 420.632 422.589 419.843 420.847 418.781C419.096 417.673 417.571 416.357 416.3 414.619C409.955 413.558 406.679 412.928 399.75 411.66C406.942 422.323 420.056 427.753 432.21 430.233C435.825 430.994 438.771 431.37 441.097 431.37C443.761 431.37 445.616 430.872 446.755 429.914C448.816 428.072 448.016 424.54 444.797 419.317C439.826 411.35 431.315 406.014 422.221 404.013C418.889 403.168 417.251 402.745 413.814 401.852C411.856 401.326 410.218 400.791 409.107 400.105C407.94 399.532 407.102 398.733 406.462 397.738C405.775 396.629 405.935 395.943 406.782 395.624C407.206 395.464 407.789 395.389 408.505 395.389C409.23 395.389 410.086 395.464 411.066 395.624C413.447 396.047 415.349 396.573 416.771 397.362C418.145 398.16 419.519 399.316 420.63 400.847C425.921 401.533 428.406 401.852 432.953 402.322C429.724 398.001 426.025 394.572 421.638 391.988C417.298 389.452 412.337 387.864 406.198 386.915C403.732 386.558 401.529 386.38 399.609 386.38Z" fill="#7D26C9"/>
<path fill-rule="evenodd" clip-rule="evenodd" d="M78.4147 376.158C77.8498 376.158 77.2756 376.224 76.7202 376.365C75.7128 376.628 74.762 377.107 73.9712 377.737C73.124 378.319 72.5967 379.005 72.2767 379.794C71.9566 380.583 71.853 381.429 72.1166 382.171C72.3802 382.913 72.8603 383.542 73.5947 384.172C74.3383 384.707 75.2892 385.121 76.2965 385.393C76.9555 385.487 77.5862 385.562 78.217 385.562C78.6312 385.562 79.0454 385.525 79.4691 385.44C80.467 385.233 81.4178 384.914 82.218 384.285C83.0088 383.749 83.5925 383.016 83.9031 382.227C84.2232 381.429 84.2797 380.583 84.0161 379.747C83.7525 378.845 83.2724 378.112 82.5287 377.53C81.7943 376.947 80.9471 376.525 79.8927 376.318C79.4126 376.215 78.9136 376.158 78.4147 376.158Z" fill="#7D26C9"/>
<path fill-rule="evenodd" clip-rule="evenodd" d="M94.5317 366.923C91.6792 373.781 88.9868 380.583 86.3884 387.497C91.5191 389.188 94.3246 390.081 100.773 391.988C102.355 387.178 103.202 384.754 104.84 380.01C105.217 379.108 105.744 378.479 106.638 378C107.438 377.577 108.493 377.314 109.764 377.267C109.914 377.257 110.074 377.257 110.234 377.257C111.374 377.257 112.588 377.417 113.887 377.793C114.998 378.056 115.996 378.526 116.843 379.061C117.634 379.691 118.218 380.273 118.641 380.959C119.065 381.692 119.121 382.33 118.905 382.96C117.21 388.24 116.42 390.983 114.838 396.413C121.183 398.367 127.528 400.321 133.921 402.275C135.191 396.995 135.822 394.355 137.15 389.188C137.413 388.343 137.94 387.601 138.948 387.131C139.946 386.652 141.16 386.389 142.695 386.389C144.182 386.389 145.82 386.549 147.562 387.028C149.68 387.657 151.525 388.446 152.852 389.508C154.17 390.616 154.754 391.716 154.537 392.937C153.427 398.79 152.852 401.692 151.685 407.649C159.301 409.922 166.964 412.186 174.58 414.46C175.475 407.649 175.898 404.22 176.689 397.521C176.953 395.52 176.162 393.463 174.364 391.565C172.519 389.611 169.977 387.864 166.757 386.229C163.472 384.707 159.828 383.383 155.752 382.274C151.581 381.222 147.929 380.583 144.653 380.48C144.05 380.452 143.457 380.442 142.883 380.442C140.369 380.442 138.176 380.724 136.199 381.325C134.824 379.587 132.97 378.056 130.541 376.741C128.103 375.36 125.147 374.308 121.654 373.359C118.406 372.476 115.525 372.062 112.965 372.062C110.62 372.062 108.54 372.41 106.695 373.096C106.958 371.931 107.062 371.405 107.326 370.296C101.781 368.821 99.1352 368.135 94.5317 366.923Z" fill="#7D26C9"/>
<path fill-rule="evenodd" clip-rule="evenodd" d="M215.373 406.155C217.425 406.155 219.609 406.521 222 407.179C224.702 407.921 227.234 408.917 229.616 410.185C231.941 411.454 233.9 412.872 235.321 414.403C236.809 415.935 237.543 417.41 237.599 418.678C237.656 420.05 236.969 421.111 235.641 421.844C234.323 422.586 232.422 422.896 229.983 422.896C227.554 422.896 224.966 422.483 222.16 421.741C219.355 420.895 216.822 419.89 214.497 418.575C212.172 417.203 210.374 415.888 209.103 414.403C207.832 412.929 207.201 411.613 207.201 410.289C207.201 409.02 207.888 408.025 209.206 407.282C210.581 406.55 212.332 406.174 214.601 406.174C214.855 406.164 215.118 406.155 215.373 406.155ZM199.208 396.047C195.057 396.047 191.592 396.507 188.853 397.418C185.313 398.63 183.355 400.641 183.091 403.59C182.828 406.493 184.249 409.443 187.535 412.609C190.811 415.672 195.518 418.781 201.59 421.741C208.199 424.953 215.344 427.546 222.32 429.651C229.032 431.548 236.328 433.239 243.521 433.982C245.724 434.198 247.776 434.31 249.668 434.31C253.34 434.31 256.409 433.888 258.857 432.976C262.5 431.708 264.138 429.388 263.714 426.062C263.347 422.746 261.125 419.26 257.162 415.888C253.199 412.506 248.068 409.396 241.986 406.55C235.641 403.59 228.665 401.27 222 399.532C215.871 397.888 209.159 396.573 202.758 396.15C201.524 396.084 200.338 396.047 199.208 396.047Z" fill="#7D26C9"/>
<path fill-rule="evenodd" clip-rule="evenodd" d="M269.109 412.722C270.747 422.953 272.121 433.136 273.336 443.367C282.43 446.007 291.477 448.59 300.571 451.183C299.404 444.269 298.82 440.887 297.398 434.029C297.125 432.713 297.445 431.661 298.396 430.975C299.347 430.29 300.835 429.97 302.736 429.97C304.581 429.97 306.803 430.29 309.345 430.975C312.678 431.868 315.37 432.976 317.432 434.404C319.597 435.879 320.868 437.411 321.235 439.045C322.93 445.48 324.464 451.916 325.895 458.407C334.829 460.944 343.763 463.527 352.697 466.054C350.635 458.407 348.414 450.76 345.985 443.16C345.138 440.52 343.236 437.937 340.327 435.457C337.465 432.976 333.878 430.759 329.642 428.805C325.471 426.908 320.811 425.329 315.794 424.005C311.83 422.953 307.283 421.975 302.859 421.975C299.968 421.975 297.135 422.398 294.537 423.479C293.802 421.581 293.379 420.632 292.635 418.838C284.755 416.837 276.989 414.723 269.109 412.722Z" fill="#7D26C9"/>
<path fill-rule="evenodd" clip-rule="evenodd" d="M347.36 420.792C353.385 436.725 358.826 452.705 363.637 469.061C372.26 471.494 380.827 473.918 389.338 476.294C387.803 471.757 387.059 469.54 385.421 464.946C387.379 464.523 388.387 464.317 390.288 463.79C393.037 466.111 394.355 467.266 397.057 469.596C402.235 474.021 407.366 478.455 412.44 482.889C421.741 485.473 430.939 488.056 440.193 490.593C427.983 480.409 415.613 470.329 403.129 460.408C409.164 457.928 415.349 454.875 420.847 451.286C412.336 449.229 403.873 447.115 395.259 444.851C392.35 446.382 390.872 447.219 387.747 448.59C384.951 450.074 383.463 450.76 380.451 452.179C379.396 449.126 378.869 447.594 377.702 444.588C375.273 438.416 372.731 432.291 370.086 426.278C362.526 424.484 354.919 422.586 347.36 420.792Z" fill="#7D26C9"/>
<path fill-rule="evenodd" clip-rule="evenodd" d="M434.328 454.471C432.313 454.471 430.666 454.697 429.414 455.185C426.185 456.454 425.441 459.15 427.296 463.208C428.934 466.637 431.89 469.803 436.173 472.706C441.304 476.135 447.593 478.719 453.363 480.513C457.59 481.941 459.699 482.627 463.719 483.942C465.677 484.628 467.212 485.313 468.426 486.103C469.593 486.901 470.441 487.794 470.911 488.846C471.542 490.114 471.279 490.903 470.168 491.223C469.876 491.307 469.518 491.354 469.076 491.354C467.927 491.354 466.27 491.053 464.096 490.48C460.923 489.588 458.325 488.583 456.479 487.371C454.681 486.159 453.09 484.684 451.989 482.937C445.531 481.415 439.082 479.771 432.634 478.192C439.562 490.17 454.521 496.023 467.212 499.405C472.832 500.899 477.144 501.613 480.269 501.613C482.114 501.613 483.545 501.369 484.609 500.88C487.509 499.508 487.565 496.079 485.033 490.903C480.636 481.941 471.071 476.501 461.714 473.815C457.958 472.603 455.999 472.02 452.036 470.752C449.814 470.01 448.016 469.277 446.755 468.535C445.427 467.802 444.58 467.004 444.109 466.008C443.629 465.003 443.893 464.373 445.06 464.157C445.333 464.101 445.653 464.072 446.011 464.072C447.056 464.072 448.478 464.298 450.238 464.683C453.09 465.425 455.265 466.167 456.8 467.116C458.325 468.065 459.652 469.277 460.706 470.808C466.948 472.18 469.857 472.809 475.251 473.918C472.389 469.484 468.643 465.848 463.983 462.889C458.908 459.676 452.093 457.355 446.331 456.031C441.549 455.035 437.491 454.471 434.328 454.471Z" fill="#7D26C9"/>
<path fill-rule="evenodd" clip-rule="evenodd" d="M65.376 411.867C65.0089 411.867 64.6511 411.905 64.2934 411.98C63.2861 412.186 62.3917 412.609 61.648 413.192C60.9043 413.83 60.4336 414.563 60.17 415.409C59.9064 416.301 59.9535 417.147 60.33 418.096C60.6407 419.044 61.1773 419.843 61.9681 420.576C62.8154 421.318 63.7097 421.844 64.8206 422.323C65.6867 422.577 66.5998 422.774 67.4471 422.774C67.6354 422.774 67.8143 422.765 67.9931 422.746C69.0005 422.633 69.8948 422.323 70.582 421.741C71.2693 421.111 71.7965 420.369 72.013 419.42C72.2766 418.518 72.2201 417.569 71.8529 416.574C71.5329 415.568 71.0057 414.667 70.2149 413.877C69.4712 413.088 68.5204 412.506 67.4095 412.186C66.7316 411.989 66.0444 411.867 65.376 411.867Z" fill="#7D26C9"/>
<path fill-rule="evenodd" clip-rule="evenodd" d="M81.2106 403.008C78.8288 410.505 76.7671 418.095 74.969 425.752C79.8926 427.913 82.7451 429.078 88.9867 431.548C90.3611 426.222 91.0484 423.582 92.4228 418.415C92.6864 417.522 93.2607 416.837 94.108 416.358C94.8235 415.935 95.7931 415.719 96.9416 415.719C97.0735 415.719 97.2052 415.719 97.337 415.728C98.655 415.831 100.086 416.151 101.724 416.677C102.938 417.147 103.993 417.673 104.84 418.359C105.791 419.044 106.478 419.683 106.902 420.529C107.325 421.318 107.485 422.06 107.278 422.746C105.744 428.495 105 431.398 103.579 437.354C110.234 439.891 116.947 442.371 123.668 444.851C124.93 439.149 125.617 436.358 126.888 430.759C127.105 429.81 127.735 429.078 128.79 428.655C129.675 428.26 130.767 428.044 132.056 428.044C132.32 428.044 132.584 428.054 132.866 428.072C134.551 428.232 136.302 428.655 138.204 429.228C140.633 430.026 142.591 431.022 144.022 432.291C145.5 433.502 146.187 434.771 145.923 436.086C144.709 442.258 144.022 445.377 142.751 451.756C150.941 454.715 159.244 457.618 167.444 460.465C168.706 453.24 169.242 449.699 170.4 442.578C170.72 440.417 169.873 438.303 167.915 436.086C165.957 433.878 163.104 431.764 159.508 429.81C155.912 427.913 151.788 426.222 147.241 424.747C142.694 423.272 138.627 422.323 135.031 421.9C133.685 421.759 132.395 421.684 131.181 421.684C129.194 421.684 127.406 421.872 125.834 422.267C124.356 420.266 122.294 418.359 119.592 416.78C116.9 415.146 113.624 413.671 109.811 412.402C105.537 410.956 101.922 410.26 98.8338 410.26C97.0829 410.26 95.4918 410.486 94.0609 410.927C94.268 409.659 94.3716 409.02 94.5881 407.809C88.6666 405.751 85.9647 404.755 81.2106 403.008Z" fill="#7D26C9"/>
<path fill-rule="evenodd" clip-rule="evenodd" d="M211.851 454.481C212.19 454.481 212.548 454.49 212.906 454.499C215.495 454.715 218.253 455.242 221.266 456.19C224.278 457.139 227.027 458.351 229.672 459.882C232.205 461.414 234.323 463.048 235.801 464.683C237.232 466.374 237.966 467.905 237.919 469.277C237.863 470.695 236.968 471.701 235.377 472.34C234.106 472.866 232.553 473.147 230.633 473.147C230.077 473.147 229.494 473.119 228.872 473.072C226.076 472.866 223.214 472.283 220.258 471.231C217.142 470.226 214.337 468.911 211.851 467.379C209.31 465.895 207.408 464.317 206.09 462.682C204.715 461.094 204.132 459.619 204.235 458.248C204.395 456.98 205.186 455.984 206.721 455.298C208.086 454.753 209.79 454.481 211.851 454.481ZM191.856 442.615C188.928 442.615 186.367 442.878 184.146 443.423C180.126 444.475 177.913 446.486 177.433 449.539C176.953 452.555 178.441 455.768 181.924 459.356C185.417 462.889 190.491 466.581 196.996 469.963C204.188 473.711 211.795 476.924 219.515 479.461C227.131 482.1 234.954 484.101 242.993 485.417C246.59 486.027 249.875 486.319 252.822 486.319C255.768 486.319 258.376 486.027 260.598 485.473C264.985 484.421 267.15 482.147 267.15 478.775C267.15 475.289 264.985 471.701 260.861 467.849C256.154 463.574 249.969 459.723 244.264 457.036C236.855 453.663 229.399 450.544 221.793 448.224C214.864 446.007 207.408 444.109 200.008 443.16C197.024 442.803 194.303 442.615 191.856 442.615Z" fill="#7D26C9"/>
<path fill-rule="evenodd" clip-rule="evenodd" d="M275.237 465.792C275.877 476.238 276.037 486.788 275.774 497.235C285.762 500.504 295.807 503.886 305.645 507.156C305.589 500.194 305.485 496.709 305.005 489.748C304.958 488.32 305.485 487.315 306.756 486.685C307.744 486.234 309.044 485.999 310.625 485.999C311.058 485.999 311.51 486.018 311.99 486.056C314.202 486.215 316.744 486.788 319.653 487.634C323.353 488.799 326.309 490.114 328.531 491.749C330.753 493.336 331.92 494.971 332.127 496.606C332.871 503.144 333.398 509.796 333.718 516.334C343.546 519.556 353.384 522.769 363.269 525.992C362.582 518.232 361.631 510.585 360.52 502.881C360.096 500.194 358.402 497.451 355.446 494.755C352.48 492.068 348.734 489.532 344.13 487.268C339.479 484.947 334.142 482.833 328.531 481.199C322.816 479.564 316.66 477.845 310.531 477.845C308.168 477.845 305.805 478.099 303.47 478.719C302.84 476.821 302.576 475.816 301.992 473.974C293.058 471.278 284.181 468.535 275.237 465.792Z" fill="#7D26C9"/>
<path fill-rule="evenodd" clip-rule="evenodd" d="M56.2159 452.602C55.9618 452.602 55.7076 452.621 55.4628 452.658C54.4554 452.762 53.5047 453.184 52.8739 453.973C52.1867 454.763 51.7065 455.721 51.4429 456.876C51.1794 458.088 51.2358 459.253 51.4994 460.568C51.8666 461.837 52.3938 462.945 53.1375 464.054C53.8812 465.106 54.7756 466.008 55.83 466.534C56.7431 467.06 57.6845 467.276 58.6071 467.276C58.7012 467.276 58.8048 467.276 58.8989 467.267C59.9063 467.116 60.8006 466.741 61.5443 466.008C62.2786 465.162 62.7023 464.213 63.0223 463.048C63.286 461.837 63.286 460.568 62.9188 459.197C62.6552 457.882 62.128 456.67 61.3278 455.561C60.5935 454.499 59.6427 453.71 58.5789 453.184C57.8258 452.79 57.0067 452.602 56.2159 452.602Z" fill="#7D26C9"/>
<path fill-rule="evenodd" clip-rule="evenodd" d="M71.3257 443.104C69.7347 452.658 67.786 462.156 65.8279 471.597C71.0621 474.5 74.0181 476.032 80.5234 479.404C81.8978 472.123 82.425 468.751 83.4323 462.203C83.5359 460.991 84.016 460.145 84.8538 459.619C85.5881 459.14 86.4919 458.877 87.6122 458.877C87.7158 458.877 87.8193 458.877 87.9229 458.887C89.1938 458.934 90.6247 459.356 92.2063 459.986C93.5337 460.568 94.5881 461.207 95.5389 462.043C96.4898 462.842 97.2334 463.791 97.7607 464.683C98.2314 465.688 98.4949 466.581 98.3443 467.426C97.6006 473.814 96.6498 480.146 95.5954 486.422C102.468 489.588 109.284 492.538 116.212 495.497C117.427 487.897 117.898 484.308 118.641 477.403C118.801 476.191 119.328 475.233 120.336 474.707C121.155 474.19 122.143 473.993 123.395 473.993C123.687 473.993 123.988 474.002 124.299 474.021C125.994 474.181 127.792 474.604 129.741 475.346C132.226 476.398 134.288 477.666 135.926 479.141C137.517 480.616 138.26 482.147 138.147 483.679C137.517 490.33 136.726 496.972 135.718 503.52C144.125 506.949 152.429 510.321 160.835 513.591C161.833 506.207 162.841 498.926 163.424 491.486C163.584 488.958 162.521 486.422 160.299 483.838C158.087 481.199 154.914 478.775 151.054 476.454C147.138 474.181 142.751 472.067 137.997 470.282C133.177 468.488 129.053 467.267 125.41 466.693C123.876 466.459 122.445 466.355 121.117 466.355C119.366 466.355 117.803 466.543 116.42 466.9C114.678 464.523 112.353 462.316 109.5 460.362C106.695 458.351 103.259 456.613 99.3987 454.979C94.8611 453.043 91.2367 452.123 88.2429 452.123C86.7367 452.123 85.3905 452.357 84.1666 452.818C84.1666 451.333 84.2231 450.601 84.2231 449.229C78.4616 446.589 75.8163 445.377 71.3257 443.104Z" fill="#7D26C9"/>
</svg>
