<svg width="15" height="14" viewBox="0 0 15 14" fill="none" xmlns="http://www.w3.org/2000/svg">
<path d="M13.5454 8H8.54541V13C8.54541 13.2652 8.44005 13.5196 8.25252 13.7071C8.06498 13.8946 7.81063 14 7.54541 14C7.28019 14 7.02584 13.8946 6.8383 13.7071C6.65077 13.5196 6.54541 13.2652 6.54541 13V8H1.54541C1.28019 8 1.02584 7.89464 0.838304 7.70711C0.650767 7.51957 0.54541 7.26522 0.54541 7C0.54541 6.73478 0.650767 6.48043 0.838304 6.29289C1.02584 6.10536 1.28019 6 1.54541 6H6.54541V1C6.54541 0.734784 6.65077 0.480429 6.8383 0.292893C7.02584 0.105357 7.28019 0 7.54541 0C7.81063 0 8.06498 0.105357 8.25252 0.292893C8.44005 0.480429 8.54541 0.734784 8.54541 1V6H13.5454C13.8106 6 14.065 6.10536 14.2525 6.29289C14.4401 6.48043 14.5454 6.73478 14.5454 7C14.5454 7.26522 14.4401 7.51957 14.2525 7.70711C14.065 7.89464 13.8106 8 13.5454 8Z" fill="#2D2D2D"/>
</svg>
